<?xml version="1.0" standalone="no"?>
<!DOCTYPE svg PUBLIC "-//W3C//DTD SVG 20010904//EN"
 "http://www.w3.org/TR/2001/REC-SVG-20010904/DTD/svg10.dtd">
<svg version="1.0" xmlns="http://www.w3.org/2000/svg"
 width="640.000000pt" height="640.000000pt" viewBox="0 0 640.000000 640.000000"
 preserveAspectRatio="xMidYMid meet">
<metadata>
Created by potrace 1.14, written by Peter Selinger 2001-2017
</metadata>
<g transform="translate(0.000000,640.000000) scale(0.100000,-0.100000)"
fill="#000000" stroke="none">
<path d="M0 5332 l0 -1069 50 -23 c43 -20 50 -28 50 -52 0 -33 -8 -34 -60 -8
-23 12 -40 16 -40 10 0 -6 20 -20 45 -31 54 -24 55 -25 81 -119 30 -110 24
-117 -70 -75 -31 14 -56 21 -56 16 0 -13 21 -27 73 -46 51 -19 55 -26 31 -45
-24 -21 -44 -78 -44 -131 0 -99 50 -188 126 -224 39 -18 147 -19 188 -2 28 12
31 10 75 -35 38 -40 55 -50 101 -60 49 -10 64 -9 128 11 39 12 75 23 79 24 5
1 9 -8 11 -19 2 -12 18 -39 36 -61 50 -58 170 -90 239 -64 29 11 37 6 62 -44
22 -44 132 -161 142 -151 3 3 -21 35 -55 70 -34 35 -71 85 -82 111 -42 99 -14
217 61 255 64 33 85 28 176 -46 29 -24 90 -65 134 -90 89 -52 129 -96 149
-169 17 -60 8 -174 -16 -216 -29 -49 -104 -89 -225 -120 -59 -15 -135 -41
-169 -58 -79 -39 -182 -71 -230 -71 -68 0 -224 59 -318 121 -17 11 -32 16 -32
11 0 -27 189 -122 272 -137 l37 -7 6 -66 c15 -165 41 -262 101 -371 44 -80
140 -225 227 -342 55 -76 147 -246 217 -404 5 -11 21 -65 35 -120 25 -98 26
-99 20 -37 -2 35 -16 97 -30 139 -14 41 -23 78 -20 82 8 7 67 -56 121 -129 83
-111 124 -202 171 -380 67 -252 0 -652 -146 -864 -64 -95 -109 -127 -222 -162
-77 -24 -103 -26 -320 -31 -235 -5 -293 -1 -479 32 -212 38 -369 166 -564 460
l-66 99 0 -347 0 -347 2339 0 2339 0 6 47 c14 97 35 148 68 162 48 22 105 78
111 110 4 16 16 38 27 49 22 20 80 134 80 156 0 48 35 121 79 164 27 27 55 66
64 92 9 25 28 58 41 73 14 16 28 43 31 60 30 141 124 316 224 414 35 35 68 63
73 63 4 0 8 5 8 11 0 7 -10 5 -25 -5 -23 -15 -25 -15 -25 1 1 41 30 221 43
265 34 109 149 266 242 329 19 13 35 28 35 32 0 4 18 35 40 67 48 71 130 134
221 171 110 45 128 57 223 154 50 50 106 100 124 109 l32 17 0 269 0 270 -32
1 -33 1 30 7 30 6 3 198 c1 129 -1 197 -8 197 -5 0 -10 7 -10 15 0 8 5 15 10
15 6 0 10 18 10 40 0 30 -4 40 -16 40 -9 0 -22 -7 -29 -16 -7 -10 -32 -19 -63
-22 -42 -4 -52 -8 -52 -23 0 -12 -7 -19 -20 -19 -17 0 -20 -7 -20 -40 l0 -40
60 0 c33 0 60 4 60 10 0 11 30 14 31 3 0 -5 2 -16 4 -27 2 -11 -3 -20 -16 -23
-16 -5 -19 -14 -19 -64 0 -33 4 -59 10 -59 6 0 10 -4 10 -10 0 -5 -12 -8 -27
-5 -70 11 -157 14 -135 4 30 -11 23 -34 -10 -35 -14 -1 -30 -4 -37 -8 -6 -4
-11 -1 -11 10 0 13 7 15 38 10 26 -4 31 -3 17 4 -28 12 -88 12 -80 0 3 -5 -3
-10 -14 -10 -37 0 -32 19 6 25 63 11 61 13 -10 13 -37 0 -71 3 -74 6 -4 3 12
6 35 6 23 0 42 4 42 10 0 5 -6 7 -14 4 -8 -3 -17 -1 -21 5 -3 7 2 11 14 11 19
0 21 7 23 63 1 49 2 53 5 20 4 -42 5 -43 39 -43 l34 0 0 120 0 120 -82 2 c-46
1 -64 3 -40 5 28 3 42 9 42 19 0 10 12 14 40 14 l40 0 0 60 0 60 40 0 40 0 0
-60 0 -60 40 0 c33 0 40 -3 40 -20 0 -24 35 -28 44 -5 3 8 12 15 21 15 14 0
15 9 9 63 -4 34 -6 69 -4 77 2 8 4 306 6 663 2 522 0 647 -11 647 -7 0 -15 9
-18 20 -4 15 0 20 14 20 18 0 19 15 19 505 0 330 -3 505 -10 505 -5 0 -10 7
-10 15 0 8 5 15 10 15 6 0 10 27 10 60 0 44 -4 60 -14 60 -7 0 -16 9 -19 20
-7 27 -60 27 -89 0 -17 -16 -24 -37 -29 -97 -7 -70 -6 -78 12 -91 10 -7 19
-17 19 -23 0 -5 -81 -9 -198 -9 -177 0 -199 2 -199 16 0 9 9 19 19 22 15 4 18
14 16 66 -1 49 -2 53 -5 19 -3 -29 -9 -43 -19 -43 -11 0 -14 18 -14 90 0 73 3
90 15 90 8 0 15 9 15 20 0 11 -7 20 -15 20 -8 0 -15 4 -15 9 0 5 -488 9 -1134
10 l-1135 2 -4 -43 -4 -43 -1 43 -2 42 -39 0 c-40 0 -40 0 -44 -42 l-4 -43 -1
43 c-2 53 -22 56 -22 2 0 -22 -4 -40 -10 -40 -5 0 -10 18 -10 40 l0 40 -200 0
-200 0 0 -40 c0 -22 -4 -40 -10 -40 -5 0 -10 18 -10 40 l0 40 -76 0 c-66 0
-78 -3 -95 -22 -10 -13 -18 -38 -19 -55 0 -18 -4 -33 -10 -33 -5 0 -6 7 -3 17
5 11 3 14 -6 9 -7 -5 -11 -17 -8 -27 3 -10 1 -22 -4 -25 -5 -3 -9 1 -10 8 0 7
-4 4 -9 -7 -7 -15 -9 -16 -9 -4 -1 9 8 28 19 42 11 14 20 34 20 45 0 12 4 24
10 27 6 3 10 10 10 15 0 4 -283 9 -629 9 l-630 2 -4 -43 -4 -43 -1 43 -2 42
-140 0 -140 0 0 -40 c0 -54 -27 -56 -33 -2 -2 20 -3 9 0 -25 2 -43 0 -63 -8
-63 -7 0 -9 9 -5 25 4 14 2 25 -4 25 -5 0 -10 18 -10 40 l0 40 -625 0 -625 0
0 -1068z m1177 1006 c-3 -8 -6 -5 -6 6 -1 11 2 17 5 13 3 -3 4 -12 1 -19z m20
-13 c-4 -8 -12 -15 -19 -14 -10 0 -10 2 0 6 6 2 12 12 12 21 0 8 3 13 6 9 4
-3 4 -13 1 -22z m1759 7 c0 -11 -9 -18 -23 -18 l-24 -2 22 19 c27 23 25 23 25
1z m2824 -52 l0 -40 -50 0 c-43 0 -50 3 -50 20 0 11 5 20 10 20 6 0 10 -7 10
-15 0 -8 5 -15 10 -15 6 0 10 7 10 15 0 8 9 15 20 15 13 0 20 7 20 20 0 11 5
20 10 20 6 0 10 -18 10 -40z m-4542 -30 c-8 -24 -12 -27 -23 -17 -7 7 -15 23
-19 35 -6 17 -4 21 8 16 9 -4 16 -1 16 6 0 10 3 10 14 1 11 -10 12 -19 4 -41z
m1661 19 c-7 -4 -10 -11 -6 -15 3 -4 13 -1 22 6 10 8 15 9 15 2 0 -6 -9 -16
-19 -22 -13 -6 -21 -23 -23 -48 -4 -36 -4 -36 -12 -10 -4 16 -5 36 0 45 4 10
6 22 5 26 0 4 4 18 11 30 8 15 13 18 16 8 2 -7 -2 -17 -9 -22z m51 21 c0 -5
-4 -10 -10 -10 -5 0 -10 5 -10 10 0 6 5 10 10 10 6 0 10 -4 10 -10z m1050 -35
c0 -22 -4 -25 -40 -25 -33 0 -40 3 -40 19 0 15 8 21 38 24 20 2 38 4 40 5 1 1
2 -9 2 -23z m1600 15 c0 -5 -18 -10 -40 -10 -22 0 -40 5 -40 10 0 6 18 10 40
10 22 0 40 -4 40 -10z m-2400 -10 c0 -5 -18 -10 -40 -10 -22 0 -40 5 -40 10 0
6 18 10 40 10 22 0 40 -4 40 -10z m-1547 -24 c-4 -6 0 -5 9 2 11 9 18 10 23 2
3 -6 10 -8 15 -5 5 3 11 1 15 -5 3 -5 -1 -10 -9 -10 -9 0 -16 -9 -16 -20 0
-11 7 -20 15 -20 8 0 15 -4 15 -10 0 -5 9 -10 20 -10 17 0 20 -7 20 -39 0 -30
-4 -40 -20 -44 -15 -4 -20 -14 -20 -41 0 -29 -4 -36 -19 -36 -18 0 -36 33 -30
55 1 6 3 31 5 58 2 41 0 47 -17 47 -10 0 -19 5 -19 10 0 6 7 10 15 10 8 0 15
9 15 20 0 11 -6 20 -14 20 -8 0 -16 6 -19 13 -3 8 1 14 9 14 7 0 10 -5 7 -11z
m-383 -6 c0 -5 -2 -10 -4 -10 -3 0 -8 5 -11 10 -3 6 -1 10 4 10 6 0 11 -4 11
-10z m330 0 c0 -6 -33 -10 -80 -10 -47 0 -80 4 -80 10 0 6 33 10 80 10 47 0
80 -4 80 -10z m567 -52 c-2 -13 -4 -3 -4 22 0 25 2 35 4 23 2 -13 2 -33 0 -45z
m53 22 c0 -22 -4 -40 -10 -40 -5 0 -10 18 -10 40 0 22 5 40 10 40 6 0 10 -18
10 -40z m574 13 c9 4 16 3 16 -1 -1 -13 -59 -77 -60 -65 0 6 5 15 10 18 6 3
10 15 10 26 0 10 -4 19 -10 19 -5 0 -10 -10 -10 -22 -1 -22 -1 -23 -15 -4 -8
11 -15 27 -14 35 0 11 2 12 6 4 7 -19 23 -16 23 4 0 15 1 15 14 -2 8 -11 19
-16 30 -12z m323 -35 c-2 -13 -4 -3 -4 22 0 25 2 35 4 23 2 -13 2 -33 0 -45z
m723 54 c0 -5 -7 -9 -15 -9 -8 0 -15 4 -15 9 0 4 7 8 15 8 8 0 15 -4 15 -8z
m1628 1 c-9 -2 -19 -12 -21 -21 -3 -12 -5 -10 -6 6 -1 17 4 22 22 21 15 -1 17
-3 5 -6z m-4197 -60 c-12 -20 -14 -14 -5 12 4 9 9 14 11 11 3 -2 0 -13 -6 -23z
m1579 7 c0 -11 -4 -20 -9 -20 -5 0 -7 9 -4 20 3 11 7 20 9 20 2 0 4 -9 4 -20z
m540 -9 c0 -5 8 -12 18 -14 9 -3 2 -5 -15 -6 -31 -1 -33 -3 -33 -36 0 -27 -4
-35 -19 -35 -10 0 -46 -3 -80 -6 l-61 -7 0 51 0 51 83 4 c45 1 88 4 95 5 6 1
12 -2 12 -7z m-2036 -26 c-7 -16 -24 -21 -24 -6 0 8 7 13 27 20 1 1 0 -6 -3
-14z m272 -8 c16 -14 24 -29 21 -38 -4 -10 -8 -8 -12 9 -4 12 -14 22 -22 22
-8 0 -11 -5 -7 -11 7 -12 -26 -79 -39 -79 -5 0 -4 6 2 13 6 8 8 17 4 20 -3 4
-1 7 6 7 7 0 1 15 -16 34 -31 38 -43 44 -43 21 0 -22 -27 -18 -33 5 -5 18 0
20 53 20 47 0 64 -5 86 -23z m466 -43 c3 -37 1 -41 -19 -41 -19 0 -20 1 -7 14
7 8 15 33 15 56 1 47 6 34 11 -29z m778 39 c0 -19 -3 -24 -10 -17 -6 6 -8 18
-4 27 9 24 14 21 14 -10z m639 3 c8 -13 11 -30 8 -38 -4 -9 -6 -7 -6 5 -1 9
-6 17 -12 17 -11 0 -39 24 -39 34 0 17 38 3 49 -18z m231 19 c0 -3 -11 -17
-25 -31 -14 -14 -25 -30 -25 -36 0 -6 -3 -9 -6 -5 -3 3 -1 22 6 41 8 25 18 36
31 36 10 0 19 -2 19 -5z m507 -117 c-2 -24 -4 -5 -4 42 0 47 2 66 4 43 2 -24
2 -62 0 -85z m-2923 86 c4 -9 13 -14 21 -10 9 3 15 0 15 -9 0 -8 -3 -15 -8
-15 -13 0 -52 30 -52 41 0 15 17 10 24 -7z m1506 -21 c0 -21 -3 -24 -9 -14 -5
8 -7 20 -4 28 8 21 13 15 13 -14z m-70 5 c-8 -7 -20 -20 -27 -28 -11 -12 -11
-10 -2 13 7 15 19 27 28 27 13 0 13 -2 1 -12z m700 -3 c0 -8 5 -16 10 -16 6
-1 15 -3 20 -4 6 -1 15 -3 20 -4 6 0 10 -35 10 -81 0 -73 2 -80 20 -80 18 0
20 -7 20 -80 0 -73 -2 -80 -20 -80 -13 0 -20 7 -20 20 0 18 -7 20 -80 20 -64
0 -80 3 -80 15 0 11 -12 15 -42 16 -31 2 -35 3 -15 6 34 5 34 33 -1 48 -12 5
-22 15 -22 22 0 8 -14 13 -40 13 -22 0 -40 -4 -40 -10 0 -5 -7 -10 -15 -10 -8
0 -15 5 -15 10 0 6 7 10 15 10 11 0 15 11 15 40 l0 40 79 0 c75 0 80 1 84 23
l4 22 8 -22 c4 -13 16 -23 26 -23 15 0 19 7 19 40 0 22 5 40 10 40 6 0 10 9
10 20 0 11 5 20 10 20 6 0 10 -7 10 -15z m300 -12 c0 -22 -2 -25 -10 -13 -13
20 -13 40 0 40 6 0 10 -12 10 -27z m400 7 c0 -17 -6 -20 -42 -18 l-43 1 38 4
c24 3 37 9 37 19 0 8 2 14 5 14 3 0 5 -9 5 -20z m1368 -13 l77 -3 -82 -2 c-80
-2 -83 -1 -82 21 1 16 3 17 6 5 3 -14 19 -18 81 -21z m260 21 c18 -18 15 -28
-8 -28 -13 0 -20 7 -20 20 0 23 10 26 28 8z m562 -18 c0 -5 -7 -10 -15 -10 -8
0 -15 5 -15 10 0 6 7 10 15 10 8 0 15 -4 15 -10z m-5455 -10 c-3 -5 1 -10 10
-10 9 0 22 -13 28 -30 6 -16 18 -31 27 -34 9 -2 7 -4 -6 -5 -14 -1 -24 6 -27
20 -3 11 -15 23 -26 26 -21 5 -30 43 -10 43 5 0 7 -4 4 -10z m753 -27 c-14
-34 -35 -58 -23 -28 4 11 10 28 12 38 3 9 9 17 14 17 5 0 3 -12 -3 -27z m346
-3 c5 0 5 8 1 18 -5 14 -4 15 6 5 10 -10 10 -16 1 -25 -10 -10 -17 -7 -35 12
-19 21 -19 22 -1 7 11 -9 24 -17 28 -17z m401 20 c-3 -5 -40 -10 -81 -10 -43
0 -74 4 -74 10 0 6 34 10 81 10 51 0 78 -4 74 -10z m265 0 c0 -5 -5 -10 -11
-10 -7 0 -10 -13 -7 -33 3 -30 1 -33 -17 -29 -11 3 -27 14 -36 23 -9 10 -19
16 -23 12 -3 -3 -6 6 -6 20 0 26 3 27 50 27 28 0 50 -4 50 -10z m137 -10 c-3
-12 -1 -35 4 -52 5 -19 5 -28 0 -22 -15 14 -19 94 -5 94 4 0 4 -9 1 -20z
m2323 5 c0 -8 -2 -15 -4 -15 -2 0 -6 7 -10 15 -3 8 -1 15 4 15 6 0 10 -7 10
-15z m-3644 -10 c-23 -17 -46 -20 -46 -4 0 5 5 7 10 4 6 -3 10 -1 10 4 0 6 10
11 23 11 21 -1 22 -1 3 -15z m84 11 c0 -3 -4 -8 -10 -11 -5 -3 -10 -1 -10 4 0
6 5 11 10 11 6 0 10 -2 10 -4z m-30 -26 c0 -5 -7 -7 -15 -4 -8 4 -15 8 -15 10
0 2 7 4 15 4 8 0 15 -4 15 -10z m428 -8 c2 -7 -2 -10 -12 -6 -9 3 -16 2 -16
-4 0 -6 6 -13 13 -15 7 -3 5 -6 -5 -6 -19 -1 -22 7 -12 34 7 17 25 16 32 -3z
m-118 -27 c0 -19 5 -35 11 -35 6 0 9 6 6 13 -3 8 6 12 24 13 23 1 25 -1 14
-12 -7 -8 -18 -14 -24 -14 -6 0 -11 -5 -11 -11 0 -6 9 -9 20 -6 25 6 25 1 3
-22 -22 -22 -53 -34 -53 -21 0 6 -5 10 -11 10 -6 0 -9 -6 -6 -14 4 -9 -3 -16
-15 -19 -16 -5 -18 -3 -9 6 18 18 13 29 -11 25 -19 -2 -24 2 -26 26 -2 16 -1
44 3 63 5 31 9 33 45 33 39 0 40 -1 40 -35z m402 13 c4 -24 0 -25 -94 -19 -22
1 -24 21 -3 21 8 0 15 5 15 10 0 6 17 10 39 10 32 0 39 -4 43 -22z m491 -3
c-7 -21 -13 -19 -13 6 0 11 4 18 10 14 5 -3 7 -12 3 -20z m335 13 c18 -18 15
-28 -8 -28 -13 0 -20 7 -20 20 0 23 10 26 28 8z m160 0 c-6 -18 -28 -21 -28
-4 0 9 7 16 16 16 9 0 14 -5 12 -12z m751 -47 c-1 -13 -2 -13 -6 2 -2 9 -8 17
-13 17 -4 0 -11 8 -14 17 -6 15 -4 15 14 -2 11 -10 19 -25 19 -34z m-1909 29
c0 -5 -5 -10 -11 -10 -5 0 -7 5 -4 10 3 6 8 10 11 10 2 0 4 -4 4 -10z m220
-20 c0 -5 -5 -10 -11 -10 -5 0 -7 5 -4 10 3 6 8 10 11 10 2 0 4 -4 4 -10z m60
5 c0 -2 -9 -9 -20 -15 -16 -9 -20 -8 -20 5 0 8 9 15 20 15 11 0 20 -2 20 -5z
m1391 -32 l2 -38 7 40 c4 22 8 31 9 20 0 -11 10 -26 21 -33 24 -14 26 -32 5
-32 -11 0 -16 -12 -17 -42 l-1 -43 -4 41 c-3 31 -9 43 -24 47 -14 4 -19 14
-19 41 0 48 20 46 21 -1z m339 32 c0 -3 -8 -14 -17 -24 -19 -23 -33 -19 -33
10 0 14 7 19 25 19 14 0 25 -2 25 -5z m1847 -57 c-2 -13 -4 -3 -4 22 0 25 2
35 4 23 2 -13 2 -33 0 -45z m-5032 42 c3 -5 1 -10 -4 -10 -6 0 -11 5 -11 10 0
6 2 10 4 10 3 0 8 -4 11 -10z m82 4 c-3 -3 -12 -4 -19 -1 -8 3 -5 6 6 6 11 1
17 -2 13 -5z m623 -4 c0 -5 -5 -10 -11 -10 -5 0 -7 5 -4 10 3 6 8 10 11 10 2
0 4 -4 4 -10z m625 0 c-3 -5 -12 -10 -20 -10 -7 0 -16 -7 -19 -16 -3 -8 -10
-12 -16 -9 -6 4 -1 14 12 25 24 20 53 27 43 10z m476 -52 c-17 -17 -31 -28
-31 -24 0 5 -7 3 -15 -4 -10 -8 -12 -16 -6 -19 12 -8 -56 -87 -71 -83 -6 2 -8
-6 -6 -16 3 -10 -3 -30 -14 -43 -10 -13 -24 -35 -29 -49 l-11 -25 -9 24 c-6
16 -6 28 1 35 7 7 10 6 10 -4 0 -11 3 -11 12 -2 8 8 8 15 -2 27 -8 10 -9 15
-1 15 6 0 11 -5 11 -11 0 -8 4 -8 13 0 8 6 12 26 11 47 -3 31 -1 34 12 24 8
-7 18 -10 21 -6 4 4 1 12 -7 17 -13 10 -13 10 0 6 10 -3 22 8 34 34 11 22 22
39 26 39 4 0 22 14 39 31 43 40 53 29 12 -13z m89 27 c0 -8 -2 -15 -4 -15 -2
0 -6 7 -10 15 -3 8 -1 15 4 15 6 0 10 -7 10 -15z m-1883 -27 c-3 -7 -5 -2 -5
12 0 14 2 19 5 13 2 -7 2 -19 0 -25z m643 7 c-18 -19 -26 -22 -32 -13 -15 24
-10 28 46 37 5 0 -1 -10 -14 -24z m450 13 c0 -4 -9 -12 -21 -19 -16 -8 -24 -8
-33 1 -8 8 -6 9 8 4 15 -6 18 -4 14 7 -4 10 1 15 13 15 11 0 19 -4 19 -8z
m224 -10 c-5 -7 -9 -16 -9 -20 0 -3 -3 -9 -6 -12 -10 -10 -7 28 4 42 13 16 22
8 11 -10z m172 -15 c-11 -11 -19 6 -11 24 8 17 8 17 12 0 3 -10 2 -21 -1 -24z
m1938 -8 c-15 -54 -14 -63 6 -58 22 6 26 -7 9 -24 -7 -7 -26 -9 -46 -6 -41 7
-113 -15 -113 -34 0 -7 -4 -13 -10 -13 -23 0 -7 29 23 41 l32 13 -37 4 c-21 2
-38 9 -38 15 0 8 24 12 77 12 l78 0 4 50 c2 36 5 44 11 30 4 -11 6 -24 4 -30z
m-3384 25 c0 -5 -4 -10 -10 -10 -5 0 -10 5 -10 10 0 6 5 10 10 10 6 0 10 -4
10 -10z m2927 -5 c0 -8 -4 -15 -9 -15 -4 0 -8 7 -8 15 0 8 4 15 8 15 5 0 9 -7
9 -15z m-1690 -41 c1 -19 -1 -33 -3 -31 -8 8 -13 67 -5 67 4 0 7 -16 8 -36z
m88 7 c-3 -12 -11 -21 -16 -21 -6 0 -8 3 -6 8 2 4 7 16 11 26 9 25 20 13 11
-13z m492 -8 c-3 -10 -5 -4 -5 12 0 17 2 24 5 18 2 -7 2 -21 0 -30z m1340 31
c-3 -3 -12 -4 -19 -1 -8 3 -5 6 6 6 11 1 17 -2 13 -5z m-2181 -60 c-3 -9 -10
-13 -15 -10 -5 4 -17 -2 -27 -11 -17 -17 -18 -17 -11 1 4 10 17 30 30 45 20
25 22 26 25 9 2 -11 1 -26 -2 -34z m914 16 c0 -36 -3 -40 -24 -40 -28 0 -41
-37 -31 -86 4 -22 3 -24 -3 -9 -13 30 -24 134 -12 115 7 -11 10 -5 10 23 0 34
2 37 30 37 28 0 30 -2 30 -40z m120 30 c0 -5 -9 -10 -21 -10 -11 0 -17 5 -14
10 3 6 13 10 21 10 8 0 14 -4 14 -10z m1100 0 c0 -5 -4 -10 -10 -10 -5 0 -10
5 -10 10 0 6 5 10 10 10 6 0 10 -4 10 -10z m100 -12 c0 -13 -5 -30 -10 -38 -7
-11 -9 -5 -7 22 2 40 17 53 17 16z m233 15 c-10 -3 -9 -8 2 -20 8 -8 15 -23
15 -34 0 -18 -2 -18 -25 5 -32 32 -33 56 -2 55 12 0 16 -3 10 -6z m-3282 -21
c-13 -2 -27 0 -32 5 -6 6 3 7 23 4 28 -4 29 -6 9 -9z m403 9 c4 -5 -3 -7 -14
-4 -23 6 -26 13 -6 13 8 0 17 -4 20 -9z m-51 -8 c-7 -2 -21 -2 -30 0 -10 3 -4
5 12 5 17 0 24 -2 18 -5z m847 -8 c0 -8 -4 -15 -10 -15 -5 0 -7 7 -4 15 4 8 8
15 10 15 2 0 4 -7 4 -15z m786 0 c4 -8 15 -15 25 -15 10 0 19 -6 19 -14 0 -22
24 -38 38 -24 16 16 15 1 0 -16 -10 -10 -16 -9 -30 8 -15 18 -17 19 -18 4 0
-10 5 -18 10 -18 6 0 10 -5 10 -11 0 -8 -5 -8 -15 1 -8 7 -15 19 -15 27 0 8
-5 11 -12 7 -7 -4 -8 -3 -4 4 4 7 -5 23 -21 37 -23 20 -25 24 -10 25 10 0 20
-7 23 -15z m-2150 -41 c6 -47 29 -84 52 -84 23 0 48 -17 39 -26 -3 -4 -13 -1
-22 6 -9 7 -18 10 -22 7 -9 -10 -44 35 -50 65 -3 15 -9 25 -14 22 -10 -6 -12
39 -2 49 10 11 14 2 19 -39z m234 36 c0 -5 -4 -10 -10 -10 -5 0 -10 5 -10 10
0 6 5 10 10 10 6 0 10 -4 10 -10z m223 3 c-7 -2 -19 -2 -25 0 -7 3 -2 5 12 5
14 0 19 -2 13 -5z m1324 -81 c4 -149 68 -331 165 -473 38 -55 266 -284 274
-276 3 2 -5 26 -17 53 -88 204 -129 507 -93 687 5 24 24 39 24 20 0 -5 15 -25
34 -46 37 -43 119 -183 154 -264 77 -181 66 -416 -29 -593 -43 -80 -119 -160
-153 -161 -21 0 -21 -1 -1 -9 48 -19 256 26 340 75 23 14 53 25 67 25 76 0
233 79 323 163 103 95 160 204 200 381 3 15 8 26 11 24 2 -3 15 -46 28 -96 13
-50 40 -120 60 -155 64 -115 206 -224 341 -262 54 -16 235 -38 243 -30 2 2
-23 24 -55 49 -121 94 -209 236 -274 441 -30 97 -25 107 23 50 97 -113 272
-261 372 -313 56 -29 142 -64 289 -118 212 -79 314 -183 362 -369 29 -115 10
-233 -44 -267 -34 -21 -24 -30 12 -12 56 29 161 117 206 172 23 29 55 81 71
115 l28 61 44 -69 c38 -59 78 -137 130 -250 11 -24 34 -108 55 -195 36 -152 4
-377 -66 -461 -56 -68 -191 -86 -296 -39 -43 19 -75 46 -117 100 l-27 35 0
-75 c-1 -143 52 -272 154 -378 46 -47 87 -79 129 -98 33 -16 63 -31 66 -34 3
-3 28 -11 55 -18 28 -7 59 -21 70 -31 29 -26 124 -68 170 -77 57 -10 74 -20
47 -28 -12 -4 -22 -12 -22 -17 0 -5 -7 -9 -15 -9 -20 0 -126 -105 -157 -155
-41 -67 -68 -151 -68 -214 0 -64 25 -151 44 -151 6 0 42 29 78 65 95 92 328
238 328 205 0 -5 -5 -12 -11 -16 -19 -11 -49 -95 -58 -158 -7 -45 -5 -72 6
-104 l14 -43 -43 -52 c-56 -67 -67 -75 -168 -117 -134 -56 -205 -111 -258
-200 -14 -25 -67 -85 -118 -135 -119 -118 -152 -168 -194 -299 -36 -107 -37
-108 -75 -122 -65 -23 -366 -112 -415 -122 -25 -6 -97 -22 -160 -37 -63 -15
-124 -29 -135 -30 -11 -2 -74 -13 -140 -25 -243 -43 -431 -60 -665 -61 -167
-1 -244 3 -300 14 -41 8 -96 18 -122 22 -154 21 -458 120 -638 209 -170 84
-273 157 -396 280 -182 184 -284 345 -376 598 -41 113 -41 113 -42 263 -1 137
1 157 27 237 15 48 32 90 37 93 22 13 437 -218 548 -305 l22 -18 -43 -25 c-52
-31 -117 -100 -117 -125 0 -12 11 -5 38 24 91 101 238 137 412 100 127 -26
270 -106 302 -169 27 -54 32 -41 12 29 -18 62 -15 165 6 205 7 11 9 23 7 26
-12 12 -40 -66 -46 -129 l-6 -68 -36 24 c-87 59 -218 116 -267 116 -16 0 -43
17 -76 48 -143 131 -275 226 -513 366 l-133 78 20 27 c10 14 42 51 71 81 28
30 68 78 89 108 33 46 39 63 45 126 10 101 -8 202 -101 583 -80 332 -104 480
-104 653 0 124 15 298 26 309 2 3 33 -22 67 -56 57 -55 94 -83 113 -83 4 0 4
29 1 65 -7 71 13 275 37 375 36 154 88 281 164 400 38 61 110 150 120 150 4 0
8 -40 9 -88z m1250 66 c-3 -8 -6 -5 -6 6 -1 11 2 17 5 13 3 -3 4 -12 1 -19z
m-2867 2 c-8 -5 -22 -10 -30 -10 -13 0 -13 1 0 10 8 5 22 10 30 10 13 0 13 -1
0 -10z m177 4 c-3 -3 -12 -4 -19 -1 -8 3 -5 6 6 6 11 1 17 -2 13 -5z m4473
-14 c0 -13 -7 -20 -19 -20 -17 0 -20 11 -12 38 1 1 8 2 16 2 8 0 15 -9 15 -20z
m-3930 2 c0 -13 -12 -22 -22 -16 -10 6 -1 24 13 24 5 0 9 -4 9 -8z m1070 -7
c0 -8 -4 -15 -10 -15 -5 0 -10 -12 -10 -27 0 -14 -3 -24 -6 -20 -9 9 5 77 16
77 6 0 10 -7 10 -15z m90 5 c0 -5 -4 -10 -10 -10 -5 0 -10 -12 -11 -27 0 -16
-3 -22 -6 -15 -7 18 5 62 17 62 6 0 10 -4 10 -10z m-1573 -16 c-3 -3 -12 -4
-19 -1 -8 3 -5 6 6 6 11 1 17 -2 13 -5z m2510 -26 c-3 -7 -5 -2 -5 12 0 14 2
19 5 13 2 -7 2 -19 0 -25z m-2010 16 c-3 -3 -12 -4 -19 -1 -8 3 -5 6 6 6 11 1
17 -2 13 -5z m213 -4 c0 -5 -2 -10 -4 -10 -3 0 -8 5 -11 10 -3 6 -1 10 4 10 6
0 11 -4 11 -10z m1470 -30 c0 -22 -4 -40 -10 -40 -5 0 -10 18 -10 40 0 22 5
40 10 40 6 0 10 -18 10 -40z m220 0 c0 -22 5 -40 10 -40 6 0 10 -9 10 -20 0
-13 7 -20 20 -20 11 0 20 -7 20 -15 0 -8 5 -15 10 -15 6 0 10 7 10 15 0 24 18
17 22 -7 5 -40 -4 -98 -16 -98 -7 0 -10 14 -8 40 3 27 0 40 -8 40 -12 0 -11
-37 5 -135 3 -23 1 -21 -9 10 -8 22 -15 33 -15 24 -1 -25 31 -123 44 -131 6
-5 4 -8 -5 -8 -12 0 -15 -9 -12 -40 3 -26 9 -40 18 -40 11 0 14 20 16 83 l2
82 3 -74 c2 -41 1 -81 -3 -90 -6 -15 -8 -23 -12 -61 -1 -9 -10 -16 -21 -17
-16 -1 -20 8 -25 68 -4 38 -5 73 -1 78 6 11 -80 22 -145 18 l-45 -2 -3 38 c-3
31 0 37 17 37 16 0 20 8 23 38 3 32 6 37 32 40 61 7 75 -3 79 -61 3 -41 4 -36
5 26 2 60 -1 77 -12 77 -7 0 -16 10 -20 23 -10 37 -7 177 4 177 6 0 10 -18 10
-40z m640 28 c0 -9 4 -8 10 2 7 11 10 4 10 -27 l0 -43 80 0 c77 0 80 -1 79
-22 0 -13 -3 -17 -6 -10 -3 8 -27 12 -72 12 -37 0 -71 4 -77 10 -6 6 -8 -4 -6
-30 l4 -40 74 0 c68 0 74 -2 79 -22 7 -33 8 -47 6 -98 l-1 -46 -41 4 -41 4 4
-43 3 -44 -37 3 c-20 2 -49 -3 -65 -12 -28 -14 -31 -13 -49 7 -22 26 -30 88
-8 65 7 -7 15 -23 17 -35 4 -30 12 -36 36 -28 17 5 21 15 21 46 0 39 0 39 40
39 l40 0 0 60 0 60 -40 0 c-33 0 -40 3 -40 20 0 17 -7 20 -40 20 l-40 0 0 40
c0 39 1 40 35 40 28 0 35 4 35 20 0 11 -7 20 -15 20 -8 0 -15 9 -15 20 0 11 5
20 10 20 6 0 10 -6 10 -12z m207 6 c-3 -3 -12 -4 -19 -1 -8 3 -5 6 6 6 11 1
17 -2 13 -5z m-2801 -41 c-10 -10 -19 5 -10 18 6 11 8 11 12 0 2 -7 1 -15 -2
-18z m44 7 c0 -5 -7 -10 -16 -10 -8 0 -12 5 -9 10 3 6 10 10 16 10 5 0 9 -4 9
-10z m1107 -27 c-3 -10 -5 -4 -5 12 0 17 2 24 5 18 2 -7 2 -21 0 -30z m-919 2
c-4 -19 -1 -25 13 -25 11 0 19 -7 19 -15 0 -9 -6 -12 -17 -8 -13 5 -15 2 -10
-17 3 -13 2 -19 -3 -14 -13 14 -17 104 -4 104 4 0 4 -11 2 -25z m699 3 c-3 -8
-6 -5 -6 6 -1 11 2 17 5 13 3 -3 4 -12 1 -19z m1433 7 c-7 -9 -15 -13 -17 -11
-7 7 7 26 19 26 6 0 6 -6 -2 -15z m166 -103 c1 -64 -1 -109 -3 -99 -2 9 -11
17 -19 17 -12 0 -12 -4 -4 -21 15 -28 4 -38 -15 -13 -14 17 -14 17 -4 -11 5
-16 16 -33 22 -38 8 -5 5 -7 -8 -5 -12 2 -23 15 -29 38 -5 19 -15 38 -20 42
-7 5 -7 8 -1 8 6 0 4 4 -2 8 -19 12 6 72 29 72 14 0 18 8 18 40 0 22 4 40 9
40 5 0 11 9 14 20 3 11 7 20 9 20 1 0 4 -53 4 -118z m-2256 93 c0 -8 -4 -15
-10 -15 -5 0 -7 7 -4 15 4 8 8 15 10 15 2 0 4 -7 4 -15z m847 -7 c-3 -8 -6 -5
-6 6 -1 11 2 17 5 13 3 -3 4 -12 1 -19z m960 0 c-3 -8 -6 -5 -6 6 -1 11 2 17
5 13 3 -3 4 -12 1 -19z m-1017 3 c0 -5 14 -11 30 -14 17 -4 30 -11 30 -16 0
-6 -7 -8 -15 -5 -11 5 -15 -1 -15 -25 0 -29 -3 -31 -35 -31 -34 0 -35 -2 -36
-37 -2 -34 -2 -35 -6 -8 -2 17 -9 42 -15 57 -15 40 -4 78 22 71 11 -3 20 0 20
6 0 6 5 11 10 11 6 0 10 -4 10 -9z m275 -12 c-7 -11 31 -49 49 -49 10 0 12 -7
8 -22 -3 -13 -1 -19 5 -15 7 5 9 0 6 -13 -3 -11 2 -31 11 -45 9 -14 14 -29 11
-34 -2 -5 2 -12 11 -15 11 -4 15 -14 12 -31 -4 -21 -3 -23 9 -14 7 7 16 9 20
5 3 -3 1 -6 -6 -6 -7 0 -9 -5 -6 -10 4 -6 11 -8 16 -5 11 7 11 -3 -1 -30 -8
-19 -9 -19 -9 3 -1 26 -18 30 -24 5 -4 -15 -5 -15 -6 2 -1 11 -12 42 -25 68
-14 27 -22 55 -19 63 3 8 -1 14 -10 14 -10 0 -13 7 -10 19 3 13 -5 26 -25 41
-19 14 -28 28 -25 40 3 10 0 21 -6 24 -17 11 -13 26 4 20 8 -4 12 -10 10 -15z
m55 17 c0 -3 -4 -8 -10 -11 -5 -3 -10 -1 -10 4 0 6 5 11 10 11 6 0 10 -2 10
-4z m-1425 -16 c3 -6 -1 -7 -9 -4 -18 7 -21 14 -7 14 6 0 13 -4 16 -10z m372
-3 c-8 -7 -18 -25 -21 -41 -10 -39 -19 -26 -11 16 5 25 12 34 27 35 17 2 18 0
5 -10z m3466 6 c-7 -2 -19 -2 -25 0 -7 3 -2 5 12 5 14 0 19 -2 13 -5z m-4553
-11 c0 -5 -7 -9 -15 -9 -8 0 -15 4 -15 9 0 4 7 8 15 8 8 0 15 -4 15 -8z m313
-23 c-8 -8 -17 -7 -33 4 l-22 15 23 4 c30 5 47 -8 32 -23z m137 10 c0 -14 -16
-11 -29 5 -10 12 -8 13 8 9 12 -3 21 -9 21 -14z m110 9 c0 -9 4 -8 11 2 9 12
9 11 3 -5 -4 -11 -9 -51 -10 -90 -1 -39 -9 -86 -17 -105 -15 -32 -16 -33 -17
-9 0 14 5 30 12 37 17 17 2 28 -17 12 -10 -8 -15 -9 -15 -1 0 6 -4 11 -9 11
-6 0 -6 -12 0 -32 11 -41 11 -48 -1 -48 -5 0 -11 10 -11 23 l-2 22 -4 -22 c-4
-19 -11 -23 -45 -23 l-40 0 3 44 c2 24 2 43 -1 41 -3 -2 -12 0 -20 6 -13 7
-12 9 3 9 9 0 17 6 17 12 0 7 7 3 15 -10 10 -14 25 -21 40 -20 23 2 25 7 25
47 0 35 -3 42 -12 33 -17 -17 -33 -15 -18 3 6 8 9 19 5 25 -3 5 -2 10 4 10 5
0 12 -6 15 -12 2 -7 4 -2 3 12 -1 14 -6 28 -12 32 -5 4 14 8 43 8 35 0 52 -4
52 -12z m70 2 c5 8 10 11 10 7 0 -15 -23 -52 -47 -74 -21 -21 -23 -21 -23 -3
0 10 9 25 20 33 14 9 18 21 14 33 -5 16 -4 16 5 4 10 -13 12 -13 21 0z m748
-10 c-7 -10 -14 -18 -15 -16 -6 6 9 36 18 36 5 0 4 -9 -3 -20z m1585 -61 c-4
-4 -6 13 -3 39 l5 47 3 -39 c2 -21 0 -42 -5 -47z m162 -37 c-3 -8 0 -10 7 -6
8 5 9 2 3 -12 -4 -10 -11 -37 -15 -59 l-7 -40 -2 40 c-1 29 -10 49 -31 73 -33
36 -40 39 -40 17 0 -22 -27 -18 -33 5 -4 15 0 20 14 20 14 0 19 8 20 28 l2 27
4 -27 c4 -28 23 -40 23 -15 0 8 4 7 10 -3 7 -11 10 -3 10 30 l1 45 19 -55 c11
-30 18 -61 15 -68z m-1469 68 c4 -10 7 -11 12 -3 4 6 8 -17 9 -51 l1 -61 -18
65 c-11 36 -19 72 -19 80 1 16 1 16 15 -30z m414 30 c0 -5 -2 -10 -4 -10 -3 0
-8 5 -11 10 -3 6 -1 10 4 10 6 0 11 -4 11 -10z m1117 -12 c-3 -8 -6 -5 -6 6
-1 11 2 17 5 13 3 -3 4 -12 1 -19z m-2483 -4 c4 -9 4 -19 1 -22 -3 -3 -5 0 -5
6 0 7 -4 12 -10 12 -5 0 -10 -7 -10 -15 0 -8 5 -15 10 -15 13 0 13 -27 1 -35
-6 -3 -15 4 -22 16 -8 16 -8 27 2 45 15 28 24 30 33 8z m-798 -9 c20 -19 4
-20 -22 0 -12 9 -14 14 -6 15 7 0 20 -7 28 -15z m240 0 c-6 -7 -13 -9 -16 -5
-3 4 -16 10 -30 13 -15 2 -8 4 16 4 33 0 39 -3 30 -12z m3011 -7 c-3 -8 -6 -5
-6 6 -1 11 2 17 5 13 3 -3 4 -12 1 -19z m-2746 -10 c-26 -27 -105 -34 -91 -7
6 10 19 14 43 11 19 -2 38 1 41 7 4 6 12 11 17 11 5 0 1 -10 -10 -22z m706
-10 c-3 -7 -5 -2 -5 12 0 14 2 19 5 13 2 -7 2 -19 0 -25z m752 -70 c1 -67 6
-96 17 -104 10 -8 15 -36 17 -95 1 -47 7 -88 13 -94 9 -8 35 -91 39 -125 0 -3
4 -12 10 -20 8 -13 7 -13 -8 -1 -9 7 -14 17 -11 22 3 5 0 9 -5 9 -6 0 -11 9
-11 19 0 34 -10 49 -31 44 -10 -3 -16 -9 -13 -14 3 -5 -2 -6 -10 -3 -11 4 -14
14 -9 32 5 22 3 24 -15 20 -15 -4 -19 -2 -15 8 4 10 0 12 -11 8 -9 -3 -16 -2
-16 4 0 23 32 21 55 -4 13 -14 26 -21 29 -16 3 6 -1 15 -9 22 -8 7 -15 24 -14
39 0 23 1 24 9 6 6 -14 9 0 9 45 0 42 -3 58 -8 45 -5 -11 -6 -26 -4 -32 3 -7
0 -13 -6 -13 -7 0 -11 39 -11 119 0 65 -3 133 -7 151 -4 20 -2 31 4 27 5 -3
10 -48 12 -99z m948 70 c-3 -7 -5 -2 -5 12 0 14 2 19 5 13 2 -7 2 -19 0 -25z
m948 22 c-3 -5 -24 -10 -46 -10 -21 0 -39 5 -39 10 0 6 21 10 46 10 27 0 43
-4 39 -10z m-1878 -122 c-2 -24 -4 -5 -4 42 0 47 2 66 4 43 2 -24 2 -62 0 -85z
m1293 68 c-14 -14 -19 -5 -13 28 6 30 6 30 15 6 5 -14 5 -27 -2 -34z m-330 22
c0 -19 -2 -20 -10 -8 -13 19 -13 30 0 30 6 0 10 -10 10 -22z m62 -13 c-6 -34
-12 -32 -12 6 0 16 4 28 9 25 4 -3 6 -17 3 -31z m-1933 -30 l0 -20 -9 20 c-5
11 -9 29 -9 40 l0 20 9 -20 c5 -11 9 -29 9 -40z m-941 17 c14 -14 35 -22 57
-22 19 0 35 -4 35 -9 0 -4 15 -13 33 -19 l32 -11 -35 5 c-19 4 -39 10 -44 15
-6 5 -27 9 -47 9 -20 0 -42 7 -49 15 -7 8 -9 15 -4 15 5 0 2 4 -6 10 -9 6 -17
5 -21 -2 -5 -7 -14 -6 -28 4 -21 15 -20 15 17 13 24 -1 47 -10 60 -23z m252
24 c0 -2 -7 -9 -15 -16 -12 -10 -15 -10 -15 4 0 9 7 16 15 16 8 0 15 -2 15 -4z
m4070 -79 c112 11 124 12 100 4 -21 -8 -12 -16 13 -12 4 0 7 -4 7 -9 0 -19
-29 -22 -45 -6 -9 9 -26 16 -37 16 -19 0 -18 -2 8 -25 16 -14 39 -25 52 -25
44 0 21 -20 -25 -21 -46 -2 -74 -4 -100 -7 -7 -1 -13 -6 -13 -11 0 -5 9 -7 20
-4 11 3 26 0 33 -6 8 -6 17 -8 20 -4 4 3 7 -1 7 -10 0 -23 -21 -32 -32 -13
-13 23 -48 21 -48 -4 0 -18 -7 -20 -80 -20 -73 0 -80 2 -80 20 0 11 7 20 15
20 17 0 105 84 105 100 0 5 -9 10 -20 10 -11 0 -20 -5 -20 -10 0 -19 -50 -62
-65 -56 -10 3 -14 18 -14 38 2 30 2 30 6 6 l4 -27 32 30 c28 27 36 30 74 24
l43 -6 2 48 1 48 6 -45 c5 -41 8 -45 31 -43z m-4000 63 c0 -5 -7 -7 -15 -4 -8
4 -15 8 -15 10 0 2 7 4 15 4 8 0 15 -4 15 -10z m2461 -33 c-13 -13 -15 1 -4
30 7 17 8 17 11 -1 2 -10 -1 -23 -7 -29z m-2233 8 c-6 -14 -13 -23 -15 -21 -5
5 15 46 22 46 3 0 -1 -11 -7 -25z m791 -7 c-7 -12 -14 -25 -15 -28 0 -3 -8
-20 -16 -39 -10 -21 -18 -29 -23 -22 -4 7 -1 20 7 29 7 9 22 34 32 55 11 20
21 35 23 33 3 -2 -1 -15 -8 -28z m-1219 12 c0 -5 -4 -10 -10 -10 -5 0 -10 5
-10 10 0 6 5 10 10 10 6 0 10 -4 10 -10z m180 0 c8 -5 13 -10 10 -11 -20 -3
-37 -8 -52 -14 -13 -5 -18 -2 -18 8 0 24 34 34 60 17z m2517 -12 c-3 -8 -6 -5
-6 6 -1 11 2 17 5 13 3 -3 4 -12 1 -19z m-2167 -22 c0 -4 -10 -6 -23 -3 -21 6
-22 4 -19 -38 3 -30 9 -45 18 -45 10 0 14 -12 14 -40 0 -36 -3 -40 -24 -40
-23 0 -25 3 -21 48 4 58 -7 84 -24 56 -10 -17 -11 -17 -9 6 2 14 9 26 16 26
24 3 27 4 16 12 -7 4 -8 15 -3 29 7 19 11 20 33 10 14 -7 26 -16 26 -21z
m1630 14 c0 -17 -7 -20 -40 -20 -34 0 -41 -4 -46 -25 -7 -27 -18 -32 -30 -13
-4 7 2 18 14 26 12 8 22 23 22 33 0 15 8 19 40 19 33 0 40 -3 40 -20z m-1289
-33 c-13 -13 -15 1 -4 30 7 17 8 17 11 -1 2 -10 -1 -23 -7 -29z m1814 23 c3
-5 1 -10 -4 -10 -6 0 -11 5 -11 10 0 6 2 10 4 10 3 0 8 -4 11 -10z m-2595 -10
c0 -5 -5 -10 -11 -10 -5 0 -7 5 -4 10 3 6 8 10 11 10 2 0 4 -4 4 -10z m533 3
c-13 -2 -33 -2 -45 0 -13 2 -3 4 22 4 25 0 35 -2 23 -4z m190 -8 c-3 -9 -8
-14 -10 -11 -3 3 -2 9 2 15 9 16 15 13 8 -4z m2210 -115 c7 -57 -8 -30 -17 30
-4 25 -13 55 -21 66 -8 12 -11 25 -7 28 9 9 38 -71 45 -124z m-2793 116 c0 -3
-4 -8 -10 -11 -5 -3 -10 -1 -10 4 0 6 5 11 10 11 6 0 10 -2 10 -4z m1318 -31
c0 -19 -4 -32 -9 -29 -5 3 -9 18 -9 35 0 16 4 29 9 29 5 0 9 -16 9 -35z m141
-42 c-1 -43 -3 -70 -6 -60 -2 9 -14 17 -25 17 -16 0 -19 -5 -15 -26 4 -23 2
-25 -19 -20 -22 6 -23 5 -12 -14 7 -11 17 -20 22 -20 9 0 35 -30 36 -40 0 -3
-10 -6 -22 -7 -13 0 -18 1 -11 4 8 3 4 12 -12 27 -14 13 -25 28 -25 35 0 6 -4
11 -8 11 -5 0 -9 6 -9 13 -1 6 -3 39 -6 72 -3 33 -3 49 0 35 2 -14 7 -32 10
-40 3 -8 5 -26 5 -40 -1 -20 0 -22 6 -7 4 10 11 18 15 18 22 -3 27 1 27 19 0
13 7 20 20 20 17 0 20 7 20 40 0 22 2 40 5 40 3 0 4 -35 4 -77z m967 19 c-12
-11 -17 7 -9 34 l8 29 3 -28 c2 -16 1 -31 -2 -35z m101 36 c-3 -8 -6 -5 -6 6
-1 11 2 17 5 13 3 -3 4 -12 1 -19z m20 -15 c-3 -10 -5 -4 -5 12 0 17 2 24 5
18 2 -7 2 -21 0 -30z m1859 15 c-3 -13 -6 -48 -6 -78 l0 -56 -67 2 c-38 1 -71
2 -75 3 -5 0 -7 34 -6 74 1 40 3 55 5 35 3 -29 9 -38 23 -38 10 0 22 5 25 10
4 6 11 8 16 5 5 -4 9 -1 9 4 0 6 7 11 15 11 8 0 22 11 31 25 20 31 38 33 30 3z
m-1933 -3 c4 -8 2 -17 -3 -20 -6 -4 -10 -4 -10 -1 0 2 -3 11 -6 20 -3 9 -2 16
4 16 5 0 12 -7 15 -15z m-2473 -14 c0 -5 -7 -14 -15 -21 -16 -14 -18 -10 -9
14 6 17 24 22 24 7z m577 -13 c-3 -8 -6 -5 -6 6 -1 11 2 17 5 13 3 -3 4 -12 1
-19z m338 -64 c-2 -63 -7 -91 -19 -102 -10 -10 -16 -12 -16 -5 0 7 5 15 10 18
6 4 9 22 6 40 -3 19 -1 37 4 40 6 3 10 16 10 28 0 18 -2 20 -11 7 -9 -12 -10
-12 -5 3 3 10 6 27 6 38 0 10 4 19 9 19 5 0 8 -39 6 -86z m-136 67 c11 -7 11
-10 0 -17 -10 -6 -7 -10 11 -15 20 -6 17 -7 -17 -8 -39 -1 -43 1 -43 24 0 26
22 33 49 16z m-139 -61 c-6 -42 -8 -47 -9 -20 -1 34 8 84 14 78 2 -2 0 -28 -5
-58z m1927 38 c-3 -8 -6 -5 -6 6 -1 11 2 17 5 13 3 -3 4 -12 1 -19z m-98 -2
c7 -8 11 -32 8 -53 l-4 -38 -1 43 c-1 23 -6 42 -12 42 -11 0 -12 -42 -1 -116
4 -29 3 -60 -1 -70 -7 -16 -8 -15 -4 4 2 12 0 22 -4 22 -5 0 -9 41 -9 90 0 89
5 104 28 76z m80 -28 c-1 -39 -2 -41 -8 -13 -4 17 -5 36 -3 43 8 23 12 12 11
-30z m-143 -5 c-11 -11 -19 6 -11 24 8 17 8 17 12 0 3 -10 2 -21 -1 -24z
m-2529 3 c-9 -7 -17 -21 -17 -30 0 -9 -4 -16 -10 -16 -5 0 -7 8 -3 18 9 24 35
53 42 46 3 -3 -2 -11 -12 -18z m343 15 c0 -6 -4 -13 -10 -16 -5 -3 -10 -16
-10 -27 0 -12 -3 -19 -6 -15 -9 8 6 67 17 67 5 0 9 -4 9 -9z m1108 -16 c-3 -3
-9 2 -12 12 -6 14 -5 15 5 6 7 -7 10 -15 7 -18z m609 -37 c-2 -13 -4 -3 -4 22
0 25 2 35 4 23 2 -13 2 -33 0 -45z m-1840 20 c-3 -7 -5 -2 -5 12 0 14 2 19 5
13 2 -7 2 -19 0 -25z m2470 0 c-3 -7 -5 -2 -5 12 0 14 2 19 5 13 2 -7 2 -19 0
-25z m-2431 -25 c-2 -27 -4 -95 -5 -152 0 -57 -3 -102 -5 -100 -8 10 -14 219
-6 214 6 -4 7 12 4 39 -5 30 -3 46 4 46 7 0 10 -18 8 -47z m85 -4 c-11 -15
-21 -35 -21 -43 0 -18 -18 -31 -28 -21 -4 4 -1 10 6 12 6 3 12 13 12 24 0 10
4 19 8 19 4 0 13 15 21 33 8 20 15 27 18 19 3 -8 -4 -27 -16 -43z m-311 14
c-12 -8 -24 -12 -27 -9 -9 8 30 36 40 29 5 -3 -1 -12 -13 -20z m3700 -3 c0
-17 -6 -20 -42 -19 -24 0 -37 3 -30 6 6 2 12 11 12 19 0 9 11 14 30 14 23 0
30 -4 30 -20z m-3800 -9 c0 -5 -11 -16 -25 -25 -29 -19 -33 -11 -7 15 19 20
32 24 32 10z m47 -63 c-2 -13 -4 -5 -4 17 -1 22 1 32 4 23 2 -10 2 -28 0 -40z
m2031 10 c2 -29 0 -38 -12 -38 -19 0 -22 -60 -5 -77 14 -14 23 -293 10 -293
-5 0 -17 7 -25 16 -15 14 -16 13 -17 -13 -1 -15 0 -34 1 -42 3 -21 -26 9 -34
37 -8 23 9 32 17 10 2 -7 3 -2 1 12 -1 14 1 32 7 40 7 13 9 13 9 1 0 -8 2 -12
5 -9 3 3 1 18 -5 33 -12 32 -3 76 11 54 6 -9 9 0 9 29 0 23 -3 42 -8 42 -4 0
-8 33 -8 73 -1 39 -5 85 -9 101 -6 21 -5 27 4 22 6 -4 11 -2 11 3 0 6 -4 11
-9 11 -5 0 -11 6 -14 13 -3 9 5 13 27 12 29 0 31 -3 34 -37z m303 28 c8 5 24
9 37 10 19 1 22 -4 22 -38 0 -39 -6 -43 -52 -39 -10 1 -18 -4 -18 -11 0 -9 -3
-9 -10 2 -5 8 -10 33 -10 55 0 27 3 35 9 26 6 -8 14 -10 22 -5z m99 4 c0 -5
-4 -10 -9 -10 -6 0 -13 5 -16 10 -3 6 1 10 9 10 9 0 16 -4 16 -10z m440 -8 c0
-19 -35 -54 -44 -45 -3 4 -6 19 -6 35 0 23 4 28 25 28 17 0 25 -5 25 -18z
m500 -22 c0 -29 4 -40 15 -40 11 0 16 12 17 43 l1 42 4 -42 c2 -24 8 -43 14
-43 5 0 9 -18 9 -40 0 -36 -2 -39 -22 -36 -13 3 -31 5 -40 5 -14 1 -18 10 -18
36 0 28 -4 35 -20 35 -17 0 -20 7 -20 40 0 38 2 40 30 40 28 0 30 -2 30 -40z
m744 -34 c5 -20 3 -27 -5 -24 -7 2 -14 15 -16 28 -2 13 -9 27 -15 31 -6 4 -8
15 -4 25 6 16 8 15 20 -7 7 -14 16 -38 20 -53z m112 36 c1 -18 -2 -35 -7 -37
-4 -3 -5 -13 -2 -23 4 -9 -5 -3 -19 13 -28 32 -29 47 -3 25 9 -7 19 -10 22 -6
4 4 1 11 -7 17 -13 8 -13 10 0 19 13 9 13 11 0 21 -13 9 -13 10 0 7 8 -3 15
-18 16 -36z m-41 18 c3 -5 1 -10 -4 -10 -6 0 -11 5 -11 10 0 6 2 10 4 10 3 0
8 -4 11 -10z m-3953 -30 c3 -16 1 -30 -4 -30 -4 0 -8 14 -8 30 0 17 2 30 4 30
2 0 6 -13 8 -30z m2472 15 c3 -8 1 -15 -4 -15 -6 0 -10 7 -10 15 0 8 2 15 4
15 2 0 6 -7 10 -15z m397 -2 c-11 -4 -11 -7 0 -14 7 -4 10 -11 6 -15 -3 -4
-14 -1 -22 6 -13 11 -13 15 -3 21 7 5 18 8 23 8 6 0 4 -3 -4 -6z m-2334 -25
c-3 -8 -6 -5 -6 6 -1 11 2 17 5 13 3 -3 4 -12 1 -19z m2190 0 c-3 -8 -6 -5 -6
6 -1 11 2 17 5 13 3 -3 4 -12 1 -19z m-2570 -10 c-3 -8 -6 -5 -6 6 -1 11 2 17
5 13 3 -3 4 -12 1 -19z m1210 0 c-3 -8 -6 -5 -6 6 -1 11 2 17 5 13 3 -3 4 -12
1 -19z m-809 -30 c-1 -43 35 -138 52 -138 5 0 11 8 13 18 4 16 5 16 6 -1 1
-20 -42 -42 -47 -23 -2 6 -7 20 -12 31 -18 41 -29 98 -23 126 8 41 13 36 11
-13z m1667 32 c3 -5 -1 -10 -9 -10 -9 0 -16 5 -16 10 0 6 4 10 9 10 6 0 13 -4
16 -10z m-2572 -7 c-7 -2 -19 -2 -25 0 -7 3 -2 5 12 5 14 0 19 -2 13 -5z m267
-23 c0 -23 -10 -26 -28 -8 -18 18 -15 28 8 28 13 0 20 -7 20 -20z m317 -42
c-2 -13 -4 -3 -4 22 0 25 2 35 4 23 2 -13 2 -33 0 -45z m436 55 c-7 -2 -19 -2
-25 0 -7 3 -2 5 12 5 14 0 19 -2 13 -5z m57 -8 c0 -8 -2 -15 -4 -15 -2 0 -6 7
-10 15 -3 8 -1 15 4 15 6 0 10 -7 10 -15z m61 -24 c-6 -11 -11 -39 -12 -63
l-1 -43 -9 44 c-6 33 -5 50 8 75 9 17 18 26 20 19 2 -7 0 -21 -6 -32z m1719
-13 c0 -16 4 -28 9 -28 5 0 16 -3 25 -6 12 -4 16 0 16 15 0 24 25 28 37 6 7
-12 20 -14 56 -9 26 4 47 12 47 18 0 6 5 4 10 -4 9 -13 11 -13 19 0 6 8 13 11
17 7 4 -4 -1 -13 -11 -21 -14 -10 -15 -15 -5 -21 7 -4 15 -3 19 4 4 6 21 -19
40 -58 19 -38 31 -74 27 -80 -4 -6 0 -11 11 -12 10 0 13 -3 6 -5 -7 -3 -3 -14
12 -28 30 -30 48 -92 34 -117 -8 -15 -6 -19 6 -19 9 0 15 -6 12 -12 -4 -15
-55 -11 -76 5 -7 6 -19 12 -26 13 -8 1 -24 9 -37 18 -17 12 -19 16 -6 16 9 0
18 -6 21 -12 2 -7 8 -9 13 -5 13 13 -18 27 -53 25 -38 -2 -50 6 -35 25 9 10 5
13 -21 13 -23 -1 -34 5 -43 22 -6 12 -15 26 -19 30 -5 4 -4 0 0 -8 8 -13 7
-13 -9 -1 -9 8 -15 20 -12 28 3 8 -2 13 -14 13 -14 0 -21 10 -26 37 -4 20 -15
45 -24 55 -16 17 -40 100 -40 136 0 15 2 15 10 2 5 -8 10 -27 10 -42z m434 46
c9 -3 13 -10 10 -16 -3 -5 -12 -4 -22 4 -13 11 -14 11 -10 -2 2 -8 16 -16 31
-18 18 -2 24 -8 20 -18 -3 -10 0 -12 10 -8 12 4 15 0 11 -18 -2 -13 -1 -17 2
-10 7 16 34 -3 34 -23 0 -10 9 -11 40 -3 23 6 44 8 47 4 11 -10 -1 -16 -50
-22 -43 -6 -47 -5 -47 15 0 11 -4 21 -10 21 -5 0 -10 -6 -10 -12 0 -7 -10 1
-22 18 -12 17 -34 38 -50 47 -46 26 -33 60 16 41z m-597 -66 c-9 -6 -9 -8 0
-8 9 0 8 -9 -4 -35 -9 -19 -18 -33 -20 -31 -2 2 2 33 9 70 11 58 14 63 20 39
5 -18 3 -30 -5 -35z m-2757 22 c-7 -4 -10 -13 -6 -19 5 -7 1 -9 -8 -5 -9 3
-16 8 -16 10 0 11 26 31 34 27 4 -3 3 -9 -4 -13z m2547 -2 c-3 -8 -6 -5 -6 6
-1 11 2 17 5 13 3 -3 4 -12 1 -19z m1793 7 c0 -8 -7 -15 -15 -15 -16 0 -20 12
-8 23 11 12 23 8 23 -8z m85 5 c3 -5 1 -10 -4 -10 -6 0 -11 5 -11 10 0 6 2 10
4 10 3 0 8 -4 11 -10z m-1869 -48 c-10 -11 -16 -12 -16 -4 0 7 5 12 10 12 6 0
11 10 11 23 1 18 2 19 6 3 3 -10 -2 -26 -11 -34z m394 33 c0 -8 -4 -15 -10
-15 -5 0 -10 7 -10 15 0 8 5 15 10 15 6 0 10 -7 10 -15z m-1786 -21 c3 -9 6
-25 6 -37 -1 -17 -4 -15 -15 12 -18 39 -18 41 -6 41 5 0 12 -7 15 -16z m3215
-24 c11 -24 11 -24 -3 -6 -9 11 -16 24 -16 30 0 12 5 7 19 -24z m104 12 c4 8
6 9 6 1 1 -18 -29 -44 -42 -36 -8 5 -8 8 0 10 7 3 9 11 6 19 -3 7 -10 11 -16
7 -6 -4 -7 -1 -3 6 6 9 12 8 26 -4 14 -13 19 -13 23 -3z m-4503 -2 c0 -5 -7
-10 -16 -10 -8 0 -12 5 -9 10 3 6 10 10 16 10 5 0 9 -4 9 -10z m110 -10 c-6
-10 -18 -24 -28 -29 -15 -9 -15 -12 -2 -21 11 -7 11 -10 2 -10 -9 0 -12 -12
-10 -37 2 -22 -2 -42 -9 -48 -7 -5 -16 -25 -19 -42 -6 -29 -4 -33 15 -33 14 0
21 -6 21 -19 0 -10 7 -24 15 -31 13 -11 15 -3 15 64 l0 76 40 0 c29 0 40 4 40
15 0 11 11 15 40 15 l40 0 0 60 0 60 40 0 40 0 0 -40 c0 -40 0 -40 39 -40 33
0 40 4 44 23 3 12 3 -16 0 -61 -6 -83 -6 -84 15 -71 17 11 24 11 34 1 9 -9 8
-12 -5 -12 -11 0 -17 -8 -17 -25 0 -16 -6 -25 -16 -25 -8 0 -12 -4 -9 -10 3
-6 -1 -7 -9 -4 -9 3 -16 1 -16 -5 0 -6 -7 -11 -16 -11 -22 0 -7 19 27 33 22 9
26 15 19 27 -8 13 -10 13 -10 -1 0 -21 -35 -28 -109 -23 l-56 4 35 -15 35 -15
-34 3 c-20 1 -36 -3 -38 -11 -3 -7 1 -10 9 -7 8 3 13 -3 14 -18 2 -28 -55 -70
-77 -56 -11 7 -12 12 -1 29 10 17 10 20 -3 20 -11 0 -15 -12 -15 -46 0 -33 3
-43 13 -38 6 4 4 -1 -5 -11 -14 -15 -20 -16 -33 -5 -8 7 -18 10 -22 6 -3 -3 0
-6 7 -6 11 0 12 -2 1 -12 -10 -11 -15 -9 -27 7 -15 19 -15 19 -13 -5 4 -50 -1
-80 -15 -80 -7 0 -25 -9 -40 -21 -21 -17 -26 -18 -26 -5 0 9 5 16 11 16 6 0 9
6 7 13 -3 6 -11 12 -19 12 -9 0 -14 -12 -15 -37 -1 -25 3 -38 12 -38 19 0 5
-37 -17 -43 -10 -3 -22 -1 -25 4 -4 6 -10 6 -18 0 -6 -5 -18 -6 -25 -2 -10 7
-11 13 -1 30 6 12 9 27 6 34 -2 7 -5 4 -5 -5 -2 -30 -19 -20 -32 19 -20 61 10
259 36 236 4 -5 5 -2 1 5 -5 8 4 23 25 42 19 16 30 32 26 36 -4 4 -14 -1 -22
-12 -8 -10 -15 -14 -15 -8 0 18 26 47 40 42 21 -7 29 -71 15 -115 -7 -21 -4
-23 24 -23 27 0 31 4 31 26 0 14 -9 33 -19 42 -14 12 -20 36 -25 84 -5 63 -3
70 22 100 25 30 63 67 70 68 1 0 -2 -9 -8 -20z m2285 -60 c20 0 35 -6 39 -15
3 -8 14 -15 25 -15 14 0 19 5 15 15 -4 8 -1 15 5 15 12 0 14 -23 5 -68 l-6
-31 -25 27 -25 27 3 -55 c4 -57 2 -60 -31 -60 -12 0 -20 7 -20 18 0 15 2 15
11 2 9 -13 10 -13 6 0 -2 9 -13 14 -25 12 -17 -3 -22 2 -23 20 0 13 -3 17 -6
11 -6 -17 -30 -17 -35 -1 -3 9 -10 7 -23 -6 -18 -18 -19 -18 -26 0 -3 11 -2
21 2 22 5 2 10 22 11 45 l1 42 5 -40 6 -40 6 40 7 40 2 -42 c1 -39 3 -43 26
-43 23 0 25 4 25 40 0 29 -4 40 -15 40 -8 0 -15 6 -15 14 0 9 -8 12 -25 8 -18
-3 -25 0 -25 11 0 19 24 29 39 14 6 -6 11 -7 11 -3 0 5 7 3 15 -4 13 -11 15
-8 17 16 1 18 3 13 5 -13 4 -41 6 -43 38 -43z m1882 43 c-3 -10 -5 -4 -5 12 0
17 2 24 5 18 2 -7 2 -21 0 -30z m98 -21 c-8 -8 -13 0 -20 33 l-7 30 16 -29 c9
-16 14 -31 11 -34z m366 45 c-7 -7 -14 -8 -21 -1 -6 6 -2 10 12 11 16 2 18 -1
9 -10z m-4711 -12 c0 -20 -50 -44 -74 -35 -14 4 -16 9 -8 14 7 4 16 4 22 1 13
-8 52 14 45 26 -4 5 -1 9 4 9 6 0 11 -7 11 -15z m910 -7 c0 -12 -1 -19 -3 -17
-1 2 -9 12 -16 22 -12 14 -11 17 3 17 10 0 16 -8 16 -22z m1567 -30 c-2 -13
-4 -5 -4 17 -1 22 1 32 4 23 2 -10 2 -28 0 -40z m-640 10 c-3 -8 -6 -5 -6 6
-1 11 2 17 5 13 3 -3 4 -12 1 -19z m773 -7 c0 -12 -9 -20 -25 -23 -29 -6 -32
4 -8 31 19 23 33 19 33 -8z m-1970 -1 c0 -17 -7 -20 -40 -20 -38 0 -40 -1 -40
-32 0 -26 -3 -30 -11 -18 -7 11 -9 -4 -5 -55 4 -57 3 -64 -5 -35 -14 51 -17
131 -6 158 9 18 18 22 59 22 41 0 48 -3 48 -20z m108 8 c15 -19 27 -268 13
-268 -6 0 -12 -19 -13 -42 l-1 -43 -4 43 c-2 23 -8 42 -14 42 -5 0 -9 18 -9
40 0 33 -3 40 -20 40 -13 0 -20 7 -20 20 0 14 -7 20 -21 20 -19 0 -21 4 -15
31 3 17 6 44 6 60 0 19 5 29 15 29 12 0 15 -13 15 -60 0 -53 2 -60 20 -60 18
0 20 7 20 80 0 78 6 93 28 68z m379 -55 c-2 -16 -4 -5 -4 22 0 28 2 40 4 28 2
-13 2 -35 0 -50z m2570 53 c-4 -10 -1 -13 9 -9 9 3 14 -2 14 -16 0 -12 5 -21
11 -21 7 0 10 -12 7 -30 -3 -19 0 -30 8 -30 7 0 10 9 7 23 -4 18 -3 19 6 7 6
-8 11 -10 11 -4 0 6 12 10 28 9 15 -1 33 3 41 9 14 11 80 17 79 7 0 -3 0 -16
1 -28 1 -23 2 -23 161 -23 l160 0 0 26 c0 41 22 54 94 56 69 3 82 -4 69 -39
-3 -10 -2 -15 2 -11 11 11 31 -20 40 -61 5 -23 4 -31 -4 -27 -6 4 -11 19 -12
34 0 24 -1 25 -8 7 l-8 -20 -5 20 c-4 12 -6 5 -7 -17 -1 -31 2 -36 16 -31 13
5 15 2 10 -11 -4 -10 -7 -23 -8 -29 0 -7 -5 -3 -10 8 -7 15 -8 9 -4 -20 7 -50
7 -55 -1 -137 -4 -47 -3 -68 5 -68 6 0 11 -17 11 -40 0 -54 24 -53 38 3 l11
42 -3 -40 c-2 -22 -11 -56 -20 -75 -9 -19 -13 -25 -10 -12 4 15 0 28 -9 35 -9
7 -18 26 -20 42 -4 29 -4 29 -6 -5 -1 -27 -4 -31 -11 -20 -6 10 -10 11 -10 3
0 -7 -9 -13 -20 -13 -13 0 -20 -7 -20 -19 0 -10 -3 -46 -6 -80 -6 -52 -5 -61
10 -61 9 0 15 3 15 8 -4 25 3 72 10 72 16 0 17 -73 2 -102 -9 -16 -19 -28 -23
-28 -12 0 -10 14 4 28 9 9 7 12 -10 12 -21 0 -22 3 -22 120 l0 120 -39 0 c-31
0 -40 -4 -44 -21 -8 -31 2 -49 29 -49 13 0 28 -9 34 -19 12 -24 13 -58 1 -63
-11 -4 -24 -108 -13 -108 18 0 10 -36 -9 -37 -16 -2 -19 5 -19 51 0 28 5 57
12 64 9 9 9 15 0 24 -9 9 -12 8 -13 -7 0 -15 -4 -13 -14 10 -8 17 -11 38 -8
49 3 12 1 16 -6 12 -6 -4 -11 -2 -11 3 0 6 4 11 10 11 5 0 7 7 3 16 -5 13 -8
13 -15 2 -6 -9 -7 -5 -3 11 6 19 4 23 -7 18 -11 -4 -14 1 -10 19 3 19 0 24
-17 24 -14 0 -21 6 -21 20 0 29 11 24 43 -17 17 -23 27 -30 27 -20 0 13 10 17
45 17 l45 0 -2 83 c-1 45 -3 63 -5 40 -6 -58 -33 -60 -33 -3 0 33 -3 40 -20
40 -18 0 -20 7 -20 60 l0 60 -80 1 c-159 3 -160 3 -160 -20 0 -22 -55 -40 -72
-23 -6 6 -1 8 16 5 29 -6 32 3 14 42 -12 27 -23 32 -33 15 -4 -6 -11 -8 -16
-5 -19 12 -55 18 -109 17 -30 -1 -70 1 -87 4 -33 5 -33 5 -33 64 0 37 4 60 11
60 6 0 9 -7 6 -14z m-60 -78 c-3 -10 0 -15 8 -12 7 3 16 1 20 -5 3 -7 -2 -11
-14 -11 -10 0 -21 -5 -23 -11 -2 -5 -11 -7 -21 -4 -13 6 -16 16 -13 49 3 22 8
49 12 60 6 15 9 13 21 -15 8 -19 12 -41 10 -51z m838 73 c3 -5 1 -12 -5 -16
-5 -3 -10 1 -10 9 0 18 6 21 15 7z m-3307 -68 l-1 -38 -4 38 c-2 20 -8 37 -14
37 -5 0 -9 7 -9 16 0 14 2 14 15 0 9 -8 14 -30 13 -53z m1385 -23 c3 -25 3
-37 0 -27 -2 9 -8 17 -11 17 -4 0 -8 21 -8 48 -2 55 10 31 19 -38z m964 65 c0
-11 -4 -12 -14 -4 -7 6 -13 13 -13 15 0 2 6 4 13 4 8 0 14 -7 14 -15z m-3594
-40 c-8 -25 -19 -45 -24 -45 -12 0 -11 17 1 25 6 3 10 14 10 24 0 14 17 41 26
41 2 0 -4 -20 -13 -45z m2802 37 c-6 -4 -16 -19 -24 -34 -8 -16 -16 -26 -19
-23 -3 2 0 11 6 18 7 8 9 17 5 20 -3 4 -12 -1 -20 -11 -11 -13 -13 -13 -10 -2
2 8 14 21 28 27 27 14 51 18 34 5z m2158 1 l-163 -3 0 -35 c0 -28 -4 -35 -20
-35 -17 0 -20 7 -20 40 l0 40 183 -2 182 -2 -162 -3z m-4445 -28 c-3 -14 -1
-25 3 -25 5 0 9 -4 9 -10 0 -5 -7 -10 -15 -10 -15 0 -20 26 -9 54 9 25 17 19
12 -9z m3112 15 c0 -5 -4 -10 -10 -10 -5 0 -10 5 -10 10 0 6 5 10 10 10 6 0
10 -4 10 -10z m-2640 -16 c0 -8 -4 -12 -10 -9 -5 3 -10 10 -10 16 0 5 5 9 10
9 6 0 10 -7 10 -16z m130 12 c0 -3 -4 -8 -10 -11 -5 -3 -10 -1 -10 4 0 6 5 11
10 11 6 0 10 -2 10 -4z m2550 -12 c0 -8 -4 -12 -10 -9 -5 3 -10 10 -10 16 0 5
5 9 10 9 6 0 10 -7 10 -16z m-3083 -36 c-3 -7 -5 -2 -5 12 0 14 2 19 5 13 2
-7 2 -19 0 -25z m523 -4 c0 -8 10 -14 24 -14 14 0 28 -4 31 -10 4 -6 -6 -10
-23 -10 -21 0 -32 7 -43 28 -22 45 -23 48 -6 33 10 -7 17 -20 17 -27z m2530
26 c8 -5 11 -12 8 -15 -4 -4 -17 0 -30 9 -24 17 -5 23 22 6z m-3576 -30 c-6
-6 -10 -2 -11 12 -2 16 1 18 10 9 7 -7 8 -14 1 -21z m916 2 c0 -15 -2 -15 -10
-2 -13 20 -13 33 0 25 6 -3 10 -14 10 -23z m56 9 c-3 -5 0 -11 8 -14 19 -7 25
-51 10 -71 -10 -15 -12 -11 -8 26 3 33 2 37 -5 18 -13 -40 -25 5 -12 48 1 1 4
2 7 2 3 0 3 -4 0 -9z m1706 -3 c7 -19 -2 -39 -14 -32 -6 4 -9 1 -6 -6 4 -13
-47 -70 -63 -70 -5 0 -9 -4 -9 -10 0 -5 -5 -10 -11 -10 -7 0 -18 -8 -25 -17
-7 -10 -15 -15 -19 -11 -4 3 3 16 14 27 13 13 18 27 14 38 -6 16 -5 16 10 4
15 -12 17 -11 17 13 0 17 4 25 11 20 6 -3 8 -16 5 -27 -4 -17 -1 -16 18 8 13
16 22 35 19 41 -2 6 3 14 12 18 9 3 13 10 10 16 -3 5 -2 10 3 10 6 0 12 -6 14
-12z m-2778 -70 c-11 -34 -19 -17 -15 30 4 45 4 45 12 17 5 -16 6 -38 3 -47z
m1273 -9 c1 -35 4 -72 6 -81 3 -10 3 -18 1 -18 -10 0 -104 105 -104 117 0 8 5
11 10 8 6 -3 10 -13 10 -21 0 -8 5 -14 10 -14 6 0 10 7 10 15 0 8 5 15 10 15
6 0 10 -7 10 -15 0 -8 7 -15 15 -15 18 0 20 32 4 62 -9 16 -8 19 3 16 9 -3 14
-25 15 -69z m1273 61 c0 -5 -4 -10 -10 -10 -5 0 -10 5 -10 10 0 6 5 10 10 10
6 0 10 -4 10 -10z m2080 -4 c0 -8 3 -21 6 -30 3 -9 2 -16 -4 -16 -5 0 -12 14
-14 30 -3 17 -1 30 4 30 4 0 8 -6 8 -14z m90 -26 c0 -29 -4 -40 -15 -40 -11 0
-15 11 -15 40 0 29 4 40 15 40 11 0 15 -11 15 -40z m503 33 c-13 -2 -33 -2
-45 0 -13 2 -3 4 22 4 25 0 35 -2 23 -4z m-2597 -30 c-10 -10 -19 5 -10 18 6
11 8 11 12 0 2 -7 1 -15 -2 -18z m1187 20 c-7 -2 -19 -2 -25 0 -7 3 -2 5 12 5
14 0 19 -2 13 -5z m-3173 -31 c0 -15 -2 -15 -10 -2 -13 20 -13 33 0 25 6 -3
10 -14 10 -23z m356 3 c-9 -13 -16 -36 -16 -50 0 -29 -15 -34 -23 -6 -5 20 9
50 32 68 24 18 25 16 7 -12z m2861 11 c-16 -12 -15 -14 14 -20 16 -3 28 -10
25 -15 -4 -5 -27 -2 -55 7 -49 17 -49 17 -22 29 38 17 61 16 38 -1z m-2907
-11 c0 -8 -4 -15 -10 -15 -5 0 -10 7 -10 15 0 8 5 15 10 15 6 0 10 -7 10 -15z
m1600 -5 c0 -5 -4 -10 -10 -10 -5 0 -10 5 -10 10 0 6 5 10 10 10 6 0 10 -4 10
-10z m-1961 -27 c10 -19 9 -22 -4 -17 -8 4 -15 15 -15 27 0 23 2 22 19 -10z
m3398 -13 c2 -14 -3 -20 -15 -19 -10 0 -12 3 -4 6 6 2 10 9 7 14 -4 5 -14 4
-24 -3 -13 -8 -23 -8 -37 0 -17 10 -15 11 14 12 23 0 32 5 32 17 0 23 23 1 27
-27z m-1390 -5 c0 -8 -4 -15 -9 -15 -10 0 -11 14 -1 23 9 10 10 9 10 -8z
m1433 5 c0 -5 -4 -10 -10 -10 -5 0 -10 5 -10 10 0 6 5 10 10 10 6 0 10 -4 10
-10z m249 6 c-9 -8 -99 -13 -99 -5 0 5 23 9 52 9 28 0 49 -2 47 -4z m311 -50
c0 -39 -6 -31 -14 19 -5 29 -4 36 3 25 6 -8 11 -28 11 -44z m67 22 c-3 -7 -5
-2 -5 12 0 14 2 19 5 13 2 -7 2 -19 0 -25z m-2177 7 c-7 -9 -9 -19 -5 -23 4
-4 10 -1 12 6 3 6 9 12 14 12 15 0 -39 -67 -59 -74 -10 -4 -7 2 8 15 18 15 20
19 7 15 -15 -5 -17 -2 -11 17 8 27 23 47 36 47 6 0 5 -7 -2 -15z m-2030 -15
c-6 -12 -20 -19 -33 -19 l-22 2 23 4 c12 2 22 11 22 19 0 8 5 14 10 14 7 0 7
-6 0 -20z m230 6 c0 -8 -4 -17 -9 -20 -10 -7 -23 19 -14 28 11 11 23 6 23 -8z
m270 10 c0 -3 -4 -16 -10 -30 -6 -17 -6 -26 0 -26 6 0 10 5 10 11 0 5 5 7 10
4 6 -4 8 -10 5 -15 -8 -14 -24 -136 -28 -212 -1 -37 -5 -70 -9 -73 -7 -7 -3
118 7 210 4 40 3 55 -3 46 -7 -10 -9 -4 -7 20 2 19 3 42 4 52 1 14 21 27 21
13z m3148 -11 c12 -3 22 -13 22 -21 0 -16 39 -35 54 -27 4 3 12 -1 17 -8 6
-10 9 -11 9 -1 0 7 15 12 40 12 l41 0 -2 -54 c-2 -59 -12 -86 -23 -67 -4 6 -2
11 5 11 8 0 8 4 -1 15 -15 18 -34 20 -24 3 4 -7 -7 -2 -25 11 -18 13 -38 32
-44 42 -7 11 -20 19 -30 19 -10 0 -15 5 -12 10 3 6 -3 10 -13 10 -24 0 -116
40 -108 47 3 3 26 -4 51 -16 53 -25 62 -26 45 -6 -7 8 -23 15 -36 15 -13 0
-24 5 -24 11 0 6 8 8 18 5 9 -2 27 -7 40 -11z m-3058 -4 c0 -6 -4 -13 -10 -16
-5 -3 -10 1 -10 9 0 9 5 16 10 16 6 0 10 -4 10 -9z m3517 -28 c-3 -10 -5 -4
-5 12 0 17 2 24 5 18 2 -7 2 -21 0 -30z m-3469 -4 c-3 -8 -7 -3 -11 10 -4 17
-3 21 5 13 5 -5 8 -16 6 -23z m1482 20 c-10 -7 -11 -12 -4 -15 6 -3 20 -11 30
-19 19 -15 19 -15 0 -8 -12 4 -17 2 -13 -4 3 -5 -7 -9 -27 -9 -29 1 -31 3 -22
21 20 37 27 45 39 45 7 0 6 -4 -3 -11z m-325 -56 c5 -17 3 -22 -8 -18 -8 4
-18 -4 -25 -17 -11 -23 -11 -23 -11 5 -1 15 4 27 9 27 6 0 10 10 10 22 0 26
14 14 25 -19z m2993 -10 l-1 -48 -4 42 c-4 40 -6 42 -41 46 l-37 4 43 1 42 2
-2 -47z m-4539 12 c17 10 51 -4 51 -21 0 -8 -4 -14 -10 -14 -5 0 -10 7 -10 15
0 13 -4 14 -20 5 -25 -13 -36 -8 -43 22 -6 22 -5 22 8 4 7 -10 19 -15 24 -11z
m1711 3 c0 -6 -6 -5 -15 2 -8 7 -15 14 -15 16 0 2 7 1 15 -2 8 -4 15 -11 15
-16z m2420 -18 c0 -29 -4 -40 -15 -40 -11 0 -15 11 -15 40 0 29 4 40 15 40 11
0 15 -11 15 -40z m-2451 -12 c1 -5 -3 -8 -7 -8 -4 0 -8 12 -9 28 -1 23 -1 24
7 7 5 -11 9 -23 9 -27z m1086 32 c3 -5 -1 -10 -10 -10 -9 0 -13 5 -10 10 3 6
8 10 10 10 2 0 7 -4 10 -10z m-2913 -22 c-7 -7 -12 -8 -12 -2 0 14 12 26 19
19 2 -3 -1 -11 -7 -17z m2953 2 c17 -19 17 -19 -21 -15 -42 6 -59 15 -26 15
12 0 22 5 22 10 0 14 5 13 25 -10z m1089 -42 c6 -4 7 -10 4 -14 -13 -12 -38
24 -37 53 l1 28 10 -30 c6 -16 16 -33 22 -37z m79 17 c4 -27 3 -35 -3 -25 -5
8 -10 28 -10 44 0 39 6 30 13 -19z m-3863 4 c0 -13 -7 -19 -24 -19 -17 0 -27
-9 -36 -30 -7 -16 -17 -27 -22 -24 -5 3 -5 11 2 19 8 10 5 17 -12 29 -12 9
-18 16 -12 16 5 0 16 -6 22 -12 10 -10 18 -7 39 19 28 34 43 35 43 2z m-220
11 c0 -5 -4 -10 -10 -10 -5 0 -10 5 -10 10 0 6 5 10 10 10 6 0 10 -4 10 -10z
m488 -138 c3 -145 -9 -242 -30 -242 -6 0 -7 10 -4 23 21 70 33 243 17 249 -4
2 -11 23 -14 47 -4 29 -2 40 4 30 5 -9 9 -9 9 -2 0 6 -5 15 -10 18 -13 8 -3
25 13 25 9 0 13 -42 15 -148z m1342 140 c0 -4 -9 -13 -20 -20 -19 -12 -20 -11
-8 8 13 20 28 27 28 12z m100 -1 c0 -5 -13 -14 -30 -20 -37 -13 -39 -6 -2 13
33 18 32 18 32 7z m37 3 c-3 -3 -12 -4 -19 -1 -8 3 -5 6 6 6 11 1 17 -2 13 -5z
m-1907 -23 c0 -5 -5 -11 -11 -13 -8 -3 -10 -16 -5 -41 5 -28 12 -37 26 -37 16
0 20 -7 20 -37 0 -34 1 -36 14 -17 15 19 15 19 29 -1 8 -10 13 -25 10 -32 -5
-11 8 -17 29 -14 4 0 4 -7 1 -16 -4 -11 -3 -14 5 -9 7 4 12 3 12 -3 0 -5 -4
-13 -10 -16 -5 -3 -10 -19 -10 -35 0 -22 -4 -28 -15 -24 -8 4 -15 1 -15 -6 0
-15 -23 8 -35 35 -8 20 -8 20 -13 0 -2 -10 1 -21 7 -23 14 -5 15 -42 1 -42 -5
0 -10 -18 -10 -40 0 -22 5 -40 10 -40 6 0 10 18 10 40 0 33 3 40 20 40 11 0
20 -5 20 -12 0 -6 6 -4 13 5 10 15 12 11 10 -28 -1 -38 2 -45 18 -45 16 0 19
-7 19 -40 0 -29 4 -40 15 -40 11 0 15 -11 15 -40 0 -29 -4 -40 -15 -40 -11 0
-15 -11 -15 -39 0 -34 3 -39 28 -44 31 -6 37 -2 47 32 5 16 4 21 -4 17 -6 -4
-11 -17 -11 -28 0 -12 -3 -19 -6 -15 -3 3 -3 29 1 57 7 51 7 51 21 25 23 -45
14 -110 -15 -110 -8 0 -16 -6 -19 -13 -2 -7 2 -10 12 -6 9 3 16 1 16 -5 0 -16
-54 -41 -78 -35 -11 3 -29 1 -39 -5 -10 -6 -12 -11 -5 -11 6 0 12 -12 12 -26
0 -15 4 -23 11 -19 6 4 8 14 4 23 -8 21 14 33 35 20 20 -13 16 -38 -13 -83
-10 -16 -16 -21 -12 -10 15 42 18 68 6 61 -6 -4 -11 -14 -11 -22 0 -9 -5 -12
-11 -8 -7 4 -9 0 -5 -14 4 -11 2 -23 -4 -27 -5 -3 -10 -16 -10 -28 -1 -19 -2
-20 -13 -6 -7 9 -24 19 -39 23 -19 4 -28 13 -28 27 0 11 -4 18 -9 14 -5 -3
-13 0 -17 6 -4 8 -3 9 4 5 7 -4 12 -3 12 2 0 6 -7 12 -15 16 -23 8 -18 28 5
21 11 -3 20 -2 20 3 0 14 -38 22 -43 8 -7 -17 -38 26 -33 46 2 10 -1 15 -9 11
-10 -3 -12 2 -8 16 6 22 -12 29 -21 9 -3 -7 -3 -3 0 9 4 19 2 22 -13 17 -15
-5 -15 -4 -3 5 12 8 12 13 2 23 -10 10 -15 10 -20 1 -6 -9 -11 -7 -20 7 -7 12
-8 20 -2 20 5 0 10 -5 10 -12 0 -6 2 -9 5 -6 12 11 -8 38 -29 39 -13 1 -8 4
14 10 19 5 68 6 108 3 l72 -6 0 41 c0 37 -2 41 -25 41 -22 0 -25 4 -25 40 0
33 3 40 20 40 18 0 20 7 20 81 l0 81 -74 -7 c-40 -4 -76 -3 -79 1 -3 5 15 7
39 5 l44 -3 1 103 c1 68 4 95 9 79 7 -23 8 -21 9 12 1 20 4 43 7 52 7 17 24
22 24 7z m363 -16 c-7 -21 -13 -19 -13 6 0 11 4 18 10 14 5 -3 7 -12 3 -20z
m1267 10 c0 -8 -4 -15 -10 -15 -5 0 -7 7 -4 15 4 8 8 15 10 15 2 0 4 -7 4 -15z
m-1775 -34 c-8 -17 -18 -31 -21 -31 -3 0 -3 4 0 9 3 4 10 21 16 36 6 15 13 25
16 22 3 -3 -2 -19 -11 -36z m1707 -10 c17 -24 41 -21 32 3 -4 10 3 13 23 10
15 -1 30 1 33 5 8 13 50 24 50 13 0 -18 -39 -44 -56 -38 -9 4 -21 0 -28 -8
-11 -15 -122 -56 -164 -61 -18 -2 -20 0 -11 11 6 8 16 11 22 7 6 -3 7 -1 3 5
-3 6 3 16 14 22 11 6 20 15 20 21 0 19 35 58 40 45 3 -6 13 -22 22 -35z m2668
-1 c0 -29 -4 -40 -15 -40 -11 0 -15 11 -15 40 0 29 4 40 15 40 11 0 15 -11 15
-40z m-4210 -8 c0 -7 -4 -10 -10 -7 -5 3 -10 16 -10 28 0 18 2 19 10 7 5 -8
10 -21 10 -28z m-419 -9 c-8 -15 -10 -15 -11 -2 0 17 10 32 18 25 2 -3 -1 -13
-7 -23z m-34 -15 c-3 -8 -6 -5 -6 6 -1 11 2 17 5 13 3 -3 4 -12 1 -19z m4349
-5 c-6 -47 -7 -49 -16 -19 -9 30 -6 46 10 46 5 0 7 -12 6 -27z m81 5 c-3 -8
-6 -5 -6 6 -1 11 2 17 5 13 3 -3 4 -12 1 -19z m-4139 -33 c-3 -42 -18 -47 -18
-7 0 26 7 42 17 42 2 0 3 -16 1 -35z m297 24 c17 -8 15 -8 -7 -4 -33 6 -35 2
-8 -25 20 -20 27 -40 13 -39 -5 0 -18 13 -31 29 -33 42 -16 62 33 39z m3847
-73 c7 4 8 2 4 -4 -4 -7 -14 -12 -23 -12 -11 0 -14 6 -9 23 3 12 7 31 8 42 1
11 3 3 5 -18 3 -24 8 -35 15 -31z m-4182 35 c0 -10 -6 -21 -14 -24 -11 -4 -11
-1 -2 19 13 29 16 30 16 5z m367 3 c-3 -3 -12 -4 -19 -1 -8 3 -5 6 6 6 11 1
17 -2 13 -5z m-637 -14 c0 -5 -9 -14 -20 -20 -11 -6 -20 -15 -20 -21 0 -6 4
-8 9 -5 16 10 0 -29 -23 -59 -15 -19 -25 -24 -30 -17 -4 7 -1 12 7 12 7 0 19
12 26 26 16 37 6 42 -13 7 -8 -15 -15 -23 -16 -16 0 17 32 86 45 95 14 11 35
10 35 -2z m270 -45 c0 -8 -7 -15 -15 -15 -8 0 -15 -6 -16 -12 0 -7 -2 -22 -5
-33 -7 -35 -14 -151 -8 -137 3 6 12 12 20 12 16 0 19 -45 4 -55 -6 -4 -8 -11
-5 -16 4 -5 1 -9 -4 -9 -6 0 -11 10 -12 23 0 21 -1 21 -10 2 -13 -28 -3 169
11 218 11 36 40 53 40 22z m4200 -5 c-6 -11 -15 -20 -20 -20 -16 0 -11 18 8
29 24 14 24 14 12 -9z m-143 -12 c-3 -8 -6 -5 -6 6 -1 11 2 17 5 13 3 -3 4
-12 1 -19z m-3617 -4 c0 -14 -3 -14 -15 -4 -8 7 -15 14 -15 16 0 2 7 4 15 4 8
0 15 -7 15 -16z m3632 -62 c-8 -23 -22 2 -15 28 6 22 7 22 13 4 4 -10 5 -25 2
-32z m-4492 28 c0 -5 -5 -10 -11 -10 -5 0 -7 5 -4 10 3 6 8 10 11 10 2 0 4 -4
4 -10z m903 -39 c-9 -12 -23 18 -16 35 6 17 8 17 13 -6 4 -14 5 -27 3 -29z
m-163 19 c-6 -11 -13 -20 -15 -20 -3 0 -5 9 -5 20 0 11 7 20 15 20 13 0 14 -4
5 -20z m125 -9 c-3 -12 -11 -19 -16 -16 -5 4 -3 14 3 25 15 24 22 19 13 -9z
m-828 13 c-3 -3 -12 -4 -19 -1 -8 3 -5 6 6 6 11 1 17 -2 13 -5z m942 -36 c-1
-28 -3 -34 -6 -18 -3 14 -9 29 -14 35 -14 14 -11 25 6 25 11 0 15 -11 14 -42z
m3682 9 c-8 -8 -11 -7 -11 4 0 20 13 34 18 19 3 -7 -1 -17 -7 -23z m129 23 c0
-5 -4 -10 -10 -10 -5 0 -10 5 -10 10 0 6 5 10 10 10 6 0 10 -4 10 -10z m-4016
-16 c4 -10 1 -14 -6 -12 -15 5 -23 28 -10 28 5 0 13 -7 16 -16z m-749 -4 c3
-5 1 -10 -4 -10 -6 0 -11 5 -11 10 0 6 2 10 4 10 3 0 8 -4 11 -10z m4352 -37
c-3 -10 -5 -2 -5 17 0 19 2 27 5 18 2 -10 2 -26 0 -35z m328 27 c3 -5 1 -10
-4 -10 -6 0 -11 5 -11 10 0 6 2 10 4 10 3 0 8 -4 11 -10z m-3795 -31 c0 -18
-1 -18 -20 1 -11 11 -20 22 -20 24 0 2 9 2 20 -1 11 -3 20 -14 20 -24z m-834
-14 c-5 -20 -9 -23 -19 -13 -11 10 -11 15 2 30 19 22 25 16 17 -17z m689 15
c3 -5 1 -10 -4 -10 -6 0 -11 5 -11 10 0 6 2 10 4 10 3 0 8 -4 11 -10z m272
-17 c0 -10 3 -49 6 -88 3 -38 6 -76 7 -83 0 -7 5 -10 12 -6 8 5 9 -2 5 -24 -4
-18 -3 -32 1 -32 5 0 14 -30 21 -67 7 -38 15 -79 19 -93 3 -14 6 -29 7 -35 0
-5 4 -16 8 -22 9 -15 17 -45 22 -90 2 -17 8 -40 14 -51 6 -12 11 -27 10 -34 0
-7 -5 -2 -11 12 -9 21 -12 22 -15 7 -5 -19 15 -50 27 -42 8 5 24 -88 21 -117
-1 -10 3 -18 8 -18 6 0 11 -4 11 -8 0 -5 -7 -9 -15 -9 -8 0 -12 4 -9 8 6 10
-36 39 -58 39 -10 0 -18 6 -18 13 0 8 -4 7 -10 -3 -5 -8 -10 -22 -10 -30 0
-13 1 -13 10 0 5 8 11 12 14 9 3 -3 -8 -17 -24 -33 -17 -15 -30 -23 -30 -18 0
20 33 87 46 95 8 4 14 17 14 28 0 16 -4 19 -20 14 -12 -4 -28 -1 -36 6 -13 10
-17 10 -25 -2 -7 -11 -9 -10 -7 6 0 11 0 34 -1 50 -2 29 -3 29 -13 8 -11 -22
-38 -32 -38 -14 0 22 36 71 53 71 15 0 16 6 11 40 -6 37 -5 40 17 40 l24 1
-27 24 c-30 26 -36 50 -15 58 10 4 10 7 0 18 -11 11 -13 10 -13 -5 0 -14 -7
-17 -32 -14 -26 2 -33 7 -31 23 6 70 9 126 6 102 -2 -15 -8 -25 -12 -23 -4 3
-13 -11 -20 -30 -14 -37 -31 -45 -31 -14 0 11 7 20 15 20 11 0 15 12 14 48 -1
48 -3 48 -13 -1 -4 -15 -11 -25 -15 -22 -5 3 -12 -1 -14 -7 -3 -7 -6 -1 -6 14
-1 15 4 30 9 33 6 4 8 11 4 16 -9 15 7 159 19 159 10 0 5 -70 -9 -117 -4 -14
-2 -23 5 -23 6 0 11 7 11 16 0 8 5 12 10 9 6 -3 10 0 10 8 0 10 7 13 20 10 11
-3 20 -9 20 -14 0 -5 7 -9 15 -9 9 0 12 6 9 15 -11 27 12 16 24 -12 l12 -28
-7 30 c-3 17 -6 41 -6 54 1 18 -1 21 -8 10 -8 -12 -11 -11 -20 4 -11 18 -59
24 -59 7 0 -5 9 -10 19 -10 33 0 33 -17 0 -22 -27 -4 -30 -2 -27 21 3 24 7 26
46 25 29 0 42 3 42 13 0 7 -6 13 -12 13 -10 0 -10 2 0 9 8 5 11 17 7 34 -4 14
-4 31 0 36 9 15 11 14 12 -6z m-193 -2 c9 -13 -37 -22 -49 -9 -7 8 -6 9 2 4 6
-3 14 -2 18 4 8 12 22 13 29 1z m3896 -73 c0 -9 2 -25 5 -35 3 -10 0 -7 -7 7
-7 14 -15 27 -18 30 -3 3 -13 23 -23 45 l-18 40 30 -35 c17 -19 31 -43 31 -52z
m217 20 c-2 -13 -4 -3 -4 22 0 25 2 35 4 23 2 -13 2 -33 0 -45z m80 0 c-2 -13
-4 -3 -4 22 0 25 2 35 4 23 2 -13 2 -33 0 -45z m-4197 -14 c0 -25 -14 -32 -26
-12 -5 8 -10 6 -16 -8 -8 -18 -8 -18 -5 1 2 12 9 19 19 17 12 -2 15 3 11 19
-4 15 -3 20 5 15 7 -4 12 -18 12 -32z m170 22 c0 -11 -19 -15 -25 -6 -3 5 1
10 9 10 9 0 16 -2 16 -4z m3382 -28 c-11 -13 -34 -39 -51 -58 -17 -19 -31 -32
-31 -28 0 4 7 14 17 23 13 13 13 19 4 25 -10 5 -4 13 18 26 17 10 31 22 31 26
0 4 7 8 16 8 14 0 13 -4 -4 -22z m-3922 -101 c0 -18 -4 -26 -11 -21 -6 3 -9
15 -6 25 3 12 0 19 -9 19 -16 0 -17 5 -8 50 l7 32 13 -39 c8 -21 14 -51 14
-66z m63 96 c-13 -2 -33 -2 -45 0 -13 2 -3 4 22 4 25 0 35 -2 23 -4z m4247
-45 c0 -15 -3 -29 -7 -31 -5 -3 -8 15 -8 38 0 24 3 39 7 32 4 -7 8 -24 8 -39z
m-5103 15 c80 -26 84 -26 175 -14 106 14 153 4 218 -48 58 -46 75 -51 173 -51
118 0 133 -9 239 -145 140 -179 172 -247 162 -345 -12 -126 -76 -250 -188
-359 l-55 -54 -63 37 c-77 46 -158 107 -158 119 0 5 13 26 29 46 68 87 97 182
82 267 -11 56 -132 315 -139 295 -2 -6 24 -71 59 -144 55 -117 62 -139 62
-192 -1 -73 -30 -153 -80 -213 -28 -35 -39 -41 -59 -36 -59 15 -137 -25 -169
-87 -8 -15 -18 -58 -22 -95 -8 -64 -10 -68 -38 -76 -45 -13 -138 -1 -179 23
-35 21 -76 74 -76 100 0 8 20 27 44 42 61 38 124 103 143 146 19 46 11 244
-17 376 -22 110 -26 65 -5 -71 20 -132 20 -262 -1 -302 -31 -63 -136 -146
-232 -183 -111 -43 -213 -27 -265 44 l-21 27 36 38 c21 20 50 64 65 97 27 58
28 65 28 232 0 105 -4 168 -9 163 -5 -5 -10 -83 -10 -172 -1 -160 -2 -164 -30
-221 -51 -99 -125 -149 -226 -151 -46 -1 -62 4 -100 29 -66 45 -94 102 -94
191 -1 61 3 77 22 101 12 15 32 47 44 70 l21 42 -22 76 c-18 61 -22 93 -19
158 3 45 8 90 12 100 5 10 4 17 -3 17 -5 0 -16 -18 -22 -40 -7 -22 -13 -40
-15 -40 -15 0 -54 22 -54 31 0 20 104 114 155 139 41 20 65 25 130 25 44 0
107 -4 140 -9 53 -7 67 -4 120 18 77 32 112 32 212 -1z m1146 -55 c-2 -4 -10
-5 -18 -2 -11 5 -11 12 -2 37 l11 32 6 -30 c4 -16 5 -33 3 -37z m-433 12 c0
-5 -4 -10 -10 -10 -5 0 -10 5 -10 10 0 6 5 10 10 10 6 0 10 -4 10 -10z m460
-42 c-1 -34 -3 -39 -11 -26 -8 15 -3 68 7 68 2 0 4 -19 4 -42z m4207 -20 c-2
-13 -4 -3 -4 22 0 25 2 35 4 23 2 -13 2 -33 0 -45z m-4647 19 c10 -4 8 -6 -7
-6 -16 -1 -23 5 -23 17 0 10 3 13 8 6 4 -6 14 -14 22 -17z m4410 -85 c0 -13
-4 -20 -10 -17 -5 3 -10 21 -10 38 0 24 3 28 10 17 5 -8 10 -25 10 -38z m90 8
c0 -35 3 -40 23 -40 16 0 18 -3 8 -9 -7 -5 -10 -14 -7 -20 4 -6 0 -11 -9 -11
-11 0 -15 -5 -11 -15 3 -8 1 -15 -4 -15 -6 0 -10 7 -10 15 0 8 -7 15 -15 15
-15 0 -18 12 -19 82 -1 33 2 38 22 38 19 0 22 -5 22 -40z m140 -35 c11 -13 10
-14 -4 -9 -9 3 -16 10 -16 15 0 13 6 11 20 -6z m-195 -44 c-4 -17 -11 -31 -16
-31 -5 0 -9 2 -9 4 0 2 -3 11 -6 20 -4 11 -1 16 10 16 9 0 16 8 16 17 0 9 3
14 6 10 3 -3 3 -19 -1 -36z m230 9 c-4 -12 -9 -19 -12 -17 -3 3 -2 15 2 27 4
12 9 19 12 17 3 -3 2 -15 -2 -27z m22 -12 c-3 -8 -6 -5 -6 6 -1 11 2 17 5 13
3 -3 4 -12 1 -19z m-4227 -8 c0 -5 -4 -10 -10 -10 -5 0 -10 5 -10 10 0 6 5 10
10 10 6 0 10 -4 10 -10z m3987 -22 c-3 -8 -6 -5 -6 6 -1 11 2 17 5 13 3 -3 4
-12 1 -19z m152 -30 c1 -9 -5 -23 -12 -30 -7 -7 -19 -22 -26 -33 -11 -17 -12
-17 -7 -2 3 10 6 35 7 55 1 32 2 34 8 12 9 -33 23 -10 16 27 -4 23 -4 24 4 8
5 -11 10 -28 10 -37z m77 -15 c-3 -27 -3 -43 2 -36 4 6 8 -12 8 -40 1 -37 0
-45 -6 -27 l-7 25 -12 -25 c-10 -21 -11 -17 -6 30 8 74 16 120 22 120 3 0 3
-21 -1 -47z m-4293 22 c-3 -9 -8 -14 -10 -11 -3 3 -2 9 2 15 9 16 15 13 8 -4z
m147 -9 c0 -14 -4 -28 -10 -31 -5 -3 -10 -13 -10 -21 0 -14 -43 -64 -55 -64
-3 0 -5 7 -5 16 0 8 -4 12 -10 9 -5 -3 -10 -1 -10 4 0 6 5 11 10 11 6 0 10 23
10 50 l0 50 40 0 c36 0 40 -3 40 -24z m3900 7 c0 -10 3 -29 7 -43 6 -22 5 -24
-10 -11 -18 14 -24 71 -7 71 6 0 10 -8 10 -17z m100 1 c0 -17 -22 -14 -28 4
-2 7 3 12 12 12 9 0 16 -7 16 -16z m117 -21 c-3 -10 -5 -4 -5 12 0 17 2 24 5
18 2 -7 2 -21 0 -30z m-112 -42 c-6 -21 -25 -29 -25 -11 0 6 5 10 10 10 6 0
10 8 10 17 0 9 3 14 6 10 3 -3 3 -15 -1 -26z m101 -58 c-11 -29 -17 -6 -9 33
7 36 8 37 11 11 2 -16 1 -36 -2 -44z m94 17 c0 -29 -4 -40 -15 -40 -11 0 -15
11 -15 40 0 29 4 40 15 40 11 0 15 -11 15 -40z m-4320 -10 c5 0 7 -7 4 -15 -4
-9 0 -15 10 -15 13 0 16 -13 16 -76 0 -74 11 -104 39 -104 19 0 12 -20 -6 -21
-16 0 -16 -1 1 -8 15 -6 10 -10 -25 -21 -24 -7 -51 -14 -59 -14 -23 -1 -24
-33 -1 -41 33 -10 26 -35 -10 -35 -24 0 -30 4 -25 15 3 8 0 15 -7 15 -7 0 -12
11 -12 25 0 14 5 25 10 25 6 0 10 10 10 23 1 12 4 35 8 50 6 21 5 27 -4 21 -8
-4 -9 -3 -5 5 5 7 -3 22 -21 37 -25 21 -26 24 -8 24 25 0 52 17 42 26 -3 4
-14 1 -23 -6 -12 -11 -20 -11 -35 -2 -11 7 -24 10 -29 7 -6 -4 -10 -4 -10 0 0
3 20 18 45 34 24 15 42 31 39 34 -3 3 -1 8 5 12 6 3 11 0 11 -7 0 -15 -35 -48
-50 -48 -6 0 -10 -4 -10 -10 0 -20 26 -9 53 22 15 17 25 38 22 45 -3 8 -2 20
2 26 5 8 9 6 11 -5 2 -10 7 -18 12 -18z m4030 -56 c0 -49 -4 -83 -9 -79 -5 3
-11 0 -14 -7 -2 -7 -3 -4 -1 8 2 11 7 53 10 92 4 40 8 72 10 72 2 0 4 -39 4
-86z m112 42 c3 -16 1 -23 -7 -19 -7 2 -11 13 -8 24 7 25 10 24 15 -5z m15 2
c-3 -8 -6 -5 -6 6 -1 11 2 17 5 13 3 -3 4 -12 1 -19z m40 -30 c-3 -8 -6 -5 -6
6 -1 11 2 17 5 13 3 -3 4 -12 1 -19z m-4078 8 c-10 -9 -79 -14 -79 -5 0 5 19
9 42 9 23 0 39 -2 37 -4z m4019 -31 c-3 -3 -9 2 -12 12 -6 14 -5 15 5 6 7 -7
10 -15 7 -18z m-4291 -57 c-3 -7 -5 -2 -5 12 0 14 2 19 5 13 2 -7 2 -19 0 -25z
m4343 26 c0 -4 -8 -13 -17 -20 -10 -7 -14 -16 -10 -20 4 -5 12 -2 16 5 7 10
10 8 16 -8 4 -13 4 -25 1 -28 -3 -4 -6 2 -6 13 -1 17 -2 17 -13 3 -14 -19 -36
-3 -29 21 9 29 42 55 42 34z m-4300 -14 c0 -5 -7 -7 -15 -4 -8 4 -15 8 -15 10
0 2 7 4 15 4 8 0 15 -4 15 -10z m-34 -66 c-15 -14 -16 -14 -16 1 0 9 6 22 13
29 10 12 13 12 15 0 2 -8 -4 -21 -12 -30z m4234 22 c0 -3 -4 -8 -10 -11 -5 -3
-10 -1 -10 4 0 6 5 11 10 11 6 0 10 -2 10 -4z m-3860 -26 c0 -5 -5 -10 -11
-10 -5 0 -7 5 -4 10 3 6 8 10 11 10 2 0 4 -4 4 -10z m3800 3 c0 -5 -14 -28
-30 -52 -17 -24 -28 -47 -25 -50 6 -5 13 3 35 39 4 8 11 12 15 9 3 -4 -9 -21
-26 -40 -18 -19 -34 -29 -36 -22 -6 16 24 83 36 83 6 0 11 9 11 20 0 11 5 20
10 20 6 0 10 -3 10 -7z m30 -8 c0 -8 -4 -15 -10 -15 -5 0 -7 7 -4 15 4 8 8 15
10 15 2 0 4 -7 4 -15z m85 5 c3 -5 1 -10 -4 -10 -6 0 -11 5 -11 10 0 6 2 10 4
10 3 0 8 -4 11 -10z m-4285 -29 c0 -6 -4 -13 -10 -16 -5 -3 -10 1 -10 9 0 9 5
16 10 16 6 0 10 -4 10 -9z m340 -35 c0 -18 -7 -25 -28 -28 -39 -6 -52 0 -52
23 0 18 10 23 37 20 6 -1 14 3 18 9 10 16 25 1 25 -24z m3920 11 c0 -7 -4 -6
-10 3 -9 13 -10 13 -10 0 0 -9 4 -20 10 -26 6 -6 5 -15 -1 -24 -9 -13 -10 -13
-6 0 2 8 -3 20 -12 26 -13 10 -13 14 -2 28 14 17 31 13 31 -7z m-4243 -34 c-3
-10 -5 -4 -5 12 0 17 2 24 5 18 2 -7 2 -21 0 -30z m-17 12 c0 -9 -8 -28 -17
-42 -13 -19 -14 -28 -5 -31 19 -6 14 -22 -8 -22 -24 0 -24 1 -3 48 9 20 15 43
14 50 -1 6 3 12 9 12 5 0 10 -7 10 -15z m257 -29 c-4 -10 -1 -13 9 -9 7 3 14
1 14 -5 0 -12 -54 -32 -84 -31 -20 0 -20 1 2 9 12 5 22 12 22 15 0 4 -10 4
-22 0 -14 -3 -9 2 12 14 42 24 54 26 47 7z m4250 -48 c-2 -13 -4 -3 -4 22 0
25 2 35 4 23 2 -13 2 -33 0 -45z m-3986 -8 c-9 -5 -9 -11 3 -23 17 -16 30
-107 15 -107 -5 0 -8 -19 -8 -42 l2 -43 7 35 c6 28 8 30 9 10 1 -31 -18 -104
-26 -96 -9 9 -34 -45 -26 -57 4 -6 -8 -1 -26 12 -18 13 -30 26 -27 29 3 2 12
-1 21 -8 9 -7 19 -10 23 -6 7 8 -17 25 -53 38 -12 5 -6 6 15 3 59 -8 65 2 64
112 0 54 -3 120 -6 146 -5 45 -5 47 9 27 12 -17 13 -24 4 -30z m3619 10 c0 -5
-5 -10 -11 -10 -5 0 -7 5 -4 10 3 6 8 10 11 10 2 0 4 -4 4 -10z m30 -5 c-7 -9
-15 -13 -19 -10 -3 3 1 10 9 15 21 14 24 12 10 -5z m-530 -21 c0 -8 4 -12 10
-9 6 4 7 -1 3 -11 -5 -13 -2 -15 15 -10 11 4 23 2 27 -4 4 -6 17 -16 29 -21
21 -9 21 -10 -1 -5 -18 3 -23 -1 -23 -16 0 -10 -4 -17 -9 -14 -5 3 -7 15 -4
25 3 10 0 21 -5 25 -6 3 -9 -10 -8 -33 1 -22 -4 -47 -11 -57 -12 -17 -13 -16
-13 3 0 12 -4 25 -10 28 -5 3 -10 15 -10 26 0 11 5 17 10 14 6 -4 8 -11 5 -16
-7 -10 8 -12 18 -2 10 9 -24 44 -36 36 -6 -4 -8 2 -5 15 4 12 2 20 -3 16 -11
-6 -11 -2 -3 20 7 19 24 11 24 -10z m-3241 -2 c6 -11 6 -24 0 -33 -6 -10 -9
-7 -9 14 0 38 -18 34 -23 -5 -4 -32 -4 -32 -5 5 -2 41 19 52 37 19z m3679 -26
c-24 -17 -23 -25 5 -36 19 -9 17 -9 -10 -4 -17 3 -34 1 -37 -5 -4 -6 -18 -6
-37 -1 -34 10 -54 24 -29 19 8 -1 35 7 60 19 52 24 73 27 48 8z m-3571 -38
c-3 -8 -6 -5 -6 6 -1 11 2 17 5 13 3 -3 4 -12 1 -19z m3464 -8 c5 0 9 -7 9
-15 0 -10 -10 -15 -29 -15 -41 0 -91 11 -91 21 0 8 66 18 88 12 8 -2 18 -3 23
-3z m-3594 -22 c-3 -8 -6 -5 -6 6 -1 11 2 17 5 13 3 -3 4 -12 1 -19z m30 0
c-3 -8 -6 -5 -6 6 -1 11 2 17 5 13 3 -3 4 -12 1 -19z m3431 10 c-3 -7 -11 -13
-18 -13 -7 0 -15 6 -17 13 -3 7 4 12 17 12 13 0 20 -5 18 -12z m-3331 -20 c-3
-8 -6 -5 -6 6 -1 11 2 17 5 13 3 -3 4 -12 1 -19z m-88 -63 c0 -5 -4 -3 -9 5
-5 8 -9 22 -9 30 0 16 17 -16 18 -35z m3304 -1 c-5 -15 -33 -20 -33 -6 0 4 6
14 13 21 10 11 9 13 -6 7 -10 -3 -20 -6 -23 -6 -2 0 -1 -8 2 -17 5 -15 4 -15
-5 -3 -7 10 -5 19 7 31 15 15 19 15 34 2 9 -8 14 -21 11 -29z m297 26 c0 -5
-4 -10 -10 -10 -5 0 -10 5 -10 10 0 6 5 10 10 10 6 0 10 -4 10 -10z m-240 -70
c0 -5 -4 -10 -10 -10 -5 0 -10 5 -10 10 0 6 5 10 10 10 6 0 10 -4 10 -10z
m-3899 -81 c299 -161 480 -261 687 -380 101 -58 299 -202 383 -278 54 -49 60
-60 26 -54 -13 3 -47 0 -75 -5 l-52 -9 -88 61 c-127 89 -281 180 -409 242
-218 105 -339 161 -420 195 -78 32 -83 36 -89 69 -10 62 -34 116 -70 158 -31
37 -38 62 -15 62 4 0 59 -28 122 -61z m3890 51 c5 0 9 -4 9 -10 0 -5 -7 -10
-15 -10 -8 0 -15 6 -15 13 0 8 -3 7 -10 -3 -5 -8 -12 -11 -15 -8 -11 11 6 30
22 24 8 -3 19 -6 24 -6z m-16 -30 c3 -5 1 -10 -4 -10 -6 0 -11 5 -11 10 0 6 2
10 4 10 3 0 8 -4 11 -10z m25 -20 c0 -5 -5 -10 -11 -10 -5 0 -7 5 -4 10 3 6 8
10 11 10 2 0 4 -4 4 -10z m239 -14 c-8 -8 -88 -10 -95 -3 -4 4 17 7 46 7 29 0
51 -2 49 -4z m-169 -16 c-10 -6 -11 -10 -2 -10 6 0 12 -5 12 -11 0 -6 -6 -9
-14 -6 -8 3 -16 1 -18 -4 -2 -6 -12 -1 -22 10 -11 12 -14 21 -8 21 7 0 12 -4
12 -10 0 -5 5 -10 10 -10 6 0 10 7 10 15 0 8 8 15 18 15 14 0 15 -2 2 -10z
m130 -80 c20 -6 21 -8 5 -8 -11 0 -29 3 -40 8 -25 11 1 11 35 0z m88 3 c-10
-2 -26 -2 -35 0 -10 3 -2 5 17 5 19 0 27 -2 18 -5z m-127 -21 c-7 -2 -18 1
-23 6 -8 8 -4 9 13 5 13 -4 18 -8 10 -11z m99 -2 c0 -5 -7 -10 -15 -10 -8 0
-15 5 -15 10 0 6 7 10 15 10 8 0 15 -4 15 -10z m380 0 c0 -5 -2 -10 -4 -10 -3
0 -8 5 -11 10 -3 6 -1 10 4 10 6 0 11 -4 11 -10z m-423 -16 c-3 -3 -12 -4 -19
-1 -8 3 -5 6 6 6 11 1 17 -2 13 -5z m188 -4 c-3 -5 -21 -10 -38 -9 -27 0 -29
2 -12 9 28 12 57 12 50 0z m-79 -8 c-5 -8 -76 -4 -76 4 0 2 18 4 41 4 22 0 38
-4 35 -8z m157 1 c-7 -2 -21 -2 -30 0 -10 3 -4 5 12 5 17 0 24 -2 18 -5z m155
-5 c-2 -6 -10 -14 -16 -16 -7 -2 -10 2 -6 12 7 18 28 22 22 4z m-113 -48 c-3
-5 -12 -10 -18 -10 -7 0 -6 4 3 10 19 12 23 12 15 0z m42 4 c-3 -3 -12 -4 -19
-1 -8 3 -5 6 6 6 11 1 17 -2 13 -5z m-92 -14 c19 -9 19 -9 -3 -16 -18 -5 -20
-9 -10 -15 10 -7 9 -9 -4 -9 -10 0 -18 5 -18 10 0 6 -10 11 -22 11 -17 1 -19
2 -5 6 9 2 17 9 17 14 0 11 18 11 45 -1z m125 -10 c0 -5 -4 -10 -9 -10 -6 0
-13 5 -16 10 -3 6 1 10 9 10 9 0 16 -4 16 -10z m180 2 c0 -4 -16 -12 -35 -18
-27 -9 -35 -8 -35 2 0 11 18 18 58 23 6 0 12 -2 12 -7z m-175 -33 c13 -5 1 -8
-37 -8 -46 -1 -56 2 -52 14 6 14 43 12 89 -6z m82 -45 c-3 -3 -12 -4 -19 -1
-8 3 -5 6 6 6 11 1 17 -2 13 -5z m-42 -13 c3 -5 2 -12 -3 -15 -5 -3 -9 1 -9 9
0 17 3 19 12 6z m-60 -31 c-23 -25 -85 -62 -85 -50 0 5 12 15 26 22 15 7 26
17 25 23 -2 5 6 12 16 16 31 13 37 10 18 -11z m-35 -60 c-24 -15 -36 -11 -14
4 10 8 21 12 24 10 2 -3 -2 -9 -10 -14z m-110 -14 c0 -2 -8 -10 -17 -17 -16
-13 -17 -12 -4 4 13 16 21 21 21 13z m40 -10 c0 -3 -4 -8 -10 -11 -5 -3 -10
-1 -10 4 0 6 5 11 10 11 6 0 10 -2 10 -4z m-72 -54 c-6 -6 -11 -30 -12 -51 0
-25 -4 -35 -9 -28 -7 9 -10 9 -14 0 -2 -7 -9 -13 -14 -13 -5 0 0 16 11 35 11
20 19 39 19 43 -1 4 -1 17 0 30 1 19 3 21 15 10 10 -9 11 -17 4 -26z m-38 -17
c0 -20 -48 -80 -57 -72 -3 3 2 13 10 22 9 8 19 24 22 35 6 17 25 29 25 15z
m145 -91 c15 5 16 4 5 -9 -10 -12 -16 -13 -26 -4 -10 8 -14 8 -14 1 0 -6 5
-14 10 -17 6 -4 8 -11 4 -16 -3 -6 -11 -3 -19 7 -9 14 -10 23 -2 36 8 11 14
13 18 6 4 -6 15 -8 24 -4z m-185 -8 c0 -16 27 -29 42 -19 7 3 8 1 4 -5 -5 -8
1 -12 18 -12 14 0 28 -4 31 -10 3 -5 -1 -10 -9 -10 -16 0 -21 -12 -9 -23 3 -4
12 -2 20 5 7 6 16 8 19 5 3 -3 -8 -13 -25 -21 -17 -9 -38 -28 -47 -41 -9 -14
-25 -25 -35 -25 -11 0 -16 -5 -14 -13 3 -6 -4 -18 -14 -24 -23 -15 -27 -6 -30
73 -1 37 3 57 19 76 21 27 27 54 10 43 -5 -3 -10 -1 -10 4 0 6 7 11 15 11 8 0
15 -6 15 -14z m-1245 -1475 c-298 -108 -403 -170 -451 -269 -17 -37 -26 -35
-45 10 -7 18 -15 35 -18 38 -3 3 -23 38 -43 78 -28 54 -33 72 -22 72 67 0 571
74 583 86 2 2 14 4 25 3 12 0 -1 -8 -29 -18z"/>
<path d="M1840 5948 c0 -9 5 -20 11 -23 17 -11 20 0 4 21 -13 17 -14 17 -15 2z"/>
<path d="M1911 5874 c0 -11 3 -14 6 -6 3 7 2 16 -1 19 -3 4 -6 -2 -5 -13z"/>
<path d="M2792 5890 c0 -14 2 -19 5 -12 2 6 2 18 0 25 -3 6 -5 1 -5 -13z"/>
<path d="M2534 4820 c-42 -9 -137 -72 -163 -109 -13 -18 -21 -42 -19 -58 l3
-26 30 24 c53 43 101 59 179 59 66 0 78 -3 134 -37 33 -21 100 -74 148 -118
95 -88 99 -91 109 -75 22 36 -158 241 -273 311 -54 32 -92 40 -148 29z m86
-35 c7 -9 15 -13 18 -11 5 6 62 -22 62 -30 0 -4 -7 -4 -15 0 -8 3 -15 1 -15
-4 0 -9 -59 -3 -94 10 -11 4 -35 1 -55 -6 -20 -6 -52 -15 -71 -19 l-35 -7 37
26 c21 15 44 23 52 20 18 -7 49 14 40 27 -9 16 63 10 76 -6z m-90 -5 c0 -5 -7
-10 -16 -10 -8 0 -12 5 -9 10 3 6 10 10 16 10 5 0 9 -4 9 -10z m218 -80 c17
-16 35 -30 41 -30 5 0 13 -4 16 -10 3 -5 -2 -10 -13 -10 -10 0 -25 11 -32 25
-7 14 -15 23 -18 20 -5 -5 -62 23 -62 30 0 16 43 0 68 -25z m88 -82 l19 -21
-27 18 c-29 18 -34 25 -20 25 5 0 17 -10 28 -22z"/>
<path d="M4443 4809 c-84 -13 -193 -51 -260 -91 -56 -33 -207 -172 -237 -218
-21 -32 -20 -47 4 -60 28 -15 52 -6 108 42 80 68 86 73 134 106 58 40 152 82
238 108 91 26 366 27 424 1 46 -20 66 -22 66 -4 0 17 -36 50 -77 71 -83 42
-279 64 -400 45z m256 -35 c84 -7 78 -24 -9 -22 -38 0 -49 3 -35 9 20 8 20 8
0 8 -12 1 -25 -3 -30 -8 -6 -5 -42 -11 -80 -13 -39 -2 -75 -7 -80 -10 -22 -12
-65 -18 -65 -8 0 5 -4 10 -10 10 -5 0 -9 -6 -7 -12 1 -8 -6 -12 -17 -10 -11 2
-15 -1 -11 -7 9 -15 -18 -14 -34 2 -10 10 -11 8 -5 -7 6 -15 3 -17 -14 -12
-12 4 -23 2 -28 -5 -5 -8 -3 -9 6 -4 9 5 11 4 6 -4 -4 -7 -15 -11 -24 -10 -10
1 -33 -5 -52 -14 -25 -12 -29 -16 -15 -17 18 -1 17 -2 -5 -15 -22 -12 -26 -12
-31 3 -9 23 -2 32 25 32 26 0 60 30 35 30 -10 1 -9 5 4 14 10 8 27 11 39 8 14
-3 19 -1 14 6 -9 15 12 25 51 24 22 -1 33 3 33 12 0 8 10 14 23 13 35 0 140
13 146 19 3 3 26 3 51 0 25 -3 78 -8 119 -12z m127 -42 c-4 -3 -14 2 -24 12
-16 18 -16 18 6 6 13 -6 21 -14 18 -18z m-689 -141 c-6 -7 -22 -17 -35 -22
-14 -5 -22 -12 -19 -15 3 -3 -11 -20 -31 -38 -61 -54 -116 -76 -72 -28 11 12
20 26 20 32 0 7 8 9 19 5 11 -3 23 0 27 6 5 9 2 10 -9 6 -25 -9 -21 0 14 34
20 20 37 28 49 24 10 -3 22 0 26 6 5 9 2 10 -11 5 -15 -5 -16 -4 -6 8 10 12
16 13 26 3 10 -9 10 -15 2 -26z"/>
<path d="M4523 4763 c9 -2 23 -2 30 0 6 3 -1 5 -18 5 -16 0 -22 -2 -12 -5z"/>
<path d="M4413 4753 c9 -2 23 -2 30 0 6 3 -1 5 -18 5 -16 0 -22 -2 -12 -5z"/>
<path d="M4460 4334 c-100 -27 -184 -88 -244 -178 -49 -74 -95 -217 -103 -318
-7 -99 3 -100 16 -2 12 80 56 196 98 257 105 152 270 223 429 183 133 -32 229
-112 291 -242 38 -80 51 -144 49 -245 -2 -102 16 -55 22 58 17 329 -256 568
-558 487z"/>
<path d="M2665 4291 c-82 -14 -150 -76 -188 -175 -21 -56 -27 -200 -10 -245 8
-20 12 -6 21 73 16 144 57 222 147 277 94 59 248 -26 320 -177 30 -63 65 -188
65 -231 0 -18 5 -33 11 -33 8 0 10 21 5 74 -14 158 -59 270 -138 349 -77 77
-145 102 -233 88z"/>
<path d="M2702 3967 c-29 -17 -65 -72 -80 -123 -17 -57 -15 -198 3 -267 18
-71 18 -68 -2 -60 -11 5 -14 3 -8 -6 11 -18 101 -57 152 -66 48 -8 153 3 153
16 0 5 -7 9 -15 9 -18 0 -18 -1 1 46 15 37 22 187 10 242 -18 84 -61 162 -107
195 -40 29 -71 33 -107 14z m177 -206 c25 -25 37 -85 22 -117 -14 -31 -54 -32
-75 -2 -21 30 -20 96 1 120 20 23 28 23 52 -1z"/>
<path d="M4343 3959 c-47 -23 -96 -88 -116 -153 -6 -23 -12 -81 -12 -131 0
-95 22 -164 66 -211 11 -12 19 -28 17 -35 -4 -21 85 -13 199 16 51 14 122 27
158 31 35 4 62 11 59 15 -3 5 -23 6 -45 3 -44 -7 -44 -8 -24 66 20 75 19 122
-6 206 -50 168 -178 252 -296 193z m267 -171 c26 -43 25 -86 -2 -115 -58 -61
-148 11 -114 91 27 64 85 75 116 24z"/>
<path d="M3085 3554 c-17 -18 -25 -38 -25 -63 0 -27 3 -32 10 -21 5 8 10 24
10 34 0 11 12 33 27 48 15 15 21 28 14 28 -6 0 -23 -12 -36 -26z"/>
<path d="M3119 3469 c-11 -7 -9 -9 7 -9 12 0 28 -10 37 -22 8 -13 18 -20 22
-16 19 18 -43 62 -66 47z"/>
<path d="M3329 3461 c-13 -11 -21 -23 -17 -27 5 -4 16 1 27 10 10 9 32 21 47
26 l29 8 -31 1 c-18 1 -42 -8 -55 -18z"/>
<path d="M2728 2334 c-21 -9 -38 -21 -38 -26 0 -6 8 -7 18 -3 59 25 150 29
222 9 l25 -6 -24 17 c-34 26 -153 31 -203 9z"/>
<path d="M4120 5261 c0 -5 5 -13 10 -16 6 -3 10 -2 10 4 0 5 -4 13 -10 16 -5
3 -10 2 -10 -4z"/>
<path d="M4345 5233 l-7 -33 -89 0 c-89 0 -96 -3 -80 -29 7 -11 11 -10 20 5 7
13 10 14 11 5 0 -8 3 -12 6 -8 8 8 34 -18 34 -33 0 -11 49 -59 62 -60 4 0 9
10 11 23 2 12 5 3 6 -20 1 -36 4 -43 21 -43 16 0 20 6 18 29 -1 16 -6 27 -10
25 -5 -3 -6 -9 -3 -14 3 -5 1 -11 -5 -15 -6 -4 -10 7 -10 25 0 25 4 31 15 26
12 -4 15 3 15 29 0 18 -5 37 -10 40 -7 4 -6 13 1 26 5 11 8 28 6 37 -3 11 -7
6 -12 -15z"/>
<path d="M4151 5234 c0 -11 3 -14 6 -6 3 7 2 16 -1 19 -3 4 -6 -2 -5 -13z"/>
<path d="M4321 5224 c0 -11 3 -14 6 -6 3 7 2 16 -1 19 -3 4 -6 -2 -5 -13z"/>
<path d="M4226 5107 c3 -10 9 -15 12 -12 3 3 0 11 -7 18 -10 9 -11 8 -5 -6z"/>
<path d="M4403 5066 c4 -10 7 -22 7 -27 0 -5 8 -9 19 -9 10 0 26 -10 35 -22
l17 -23 -12 24 c-6 13 -20 26 -30 28 -10 3 -19 11 -19 19 0 7 -5 16 -12 20 -8
5 -9 2 -5 -10z"/>
<path d="M4435 5060 c3 -5 8 -10 11 -10 2 0 4 5 4 10 0 6 -5 10 -11 10 -5 0
-7 -4 -4 -10z"/>
<path d="M4376 5041 c-3 -5 1 -11 9 -15 8 -3 15 -1 15 4 0 13 -18 22 -24 11z"/>
<path d="M4315 5019 c-11 -16 -1 -19 13 -3 7 8 8 14 3 14 -5 0 -13 -5 -16 -11z"/>
<path d="M1224 5196 c-3 -8 -4 -29 -2 -48 3 -29 4 -27 8 15 5 48 3 58 -6 33z"/>
<path d="M1166 5033 c-6 -14 -5 -15 5 -6 7 7 10 15 7 18 -3 3 -9 -2 -12 -12z"/>
<path d="M1137 5004 c-7 -8 4 -44 14 -44 12 0 12 37 0 44 -4 3 -11 3 -14 0z"/>
<path d="M1395 4949 c-11 -17 1 -21 15 -4 8 9 8 15 2 15 -6 0 -14 -5 -17 -11z"/>
<path d="M1098 4925 c-5 -25 -4 -25 10 -11 12 11 13 19 5 27 -7 7 -12 3 -15
-16z"/>
<path d="M1111 4874 c0 -11 3 -14 6 -6 3 7 2 16 -1 19 -3 4 -6 -2 -5 -13z"/>
<path d="M1092 4840 c0 -14 2 -19 5 -12 2 6 2 18 0 25 -3 6 -5 1 -5 -13z"/>
<path d="M1112 4810 c0 -19 2 -27 5 -17 2 9 2 25 0 35 -3 9 -5 1 -5 -18z"/>
<path d="M1081 4793 c0 -5 4 -17 9 -28 8 -18 9 -17 9 8 1 15 -3 27 -9 27 -5 0
-10 -3 -9 -7z"/>
<path d="M1160 4761 c0 -5 5 -13 10 -16 6 -3 10 -2 10 4 0 5 -4 13 -10 16 -5
3 -10 2 -10 -4z"/>
<path d="M4900 5169 c12 -42 20 -49 20 -17 0 14 -7 31 -15 38 -12 10 -13 7 -5
-21z"/>
<path d="M5045 5161 c-2 -4 12 -7 30 -7 19 0 32 3 29 5 -7 8 -54 9 -59 2z"/>
<path d="M2310 5030 c0 -5 5 -10 10 -10 6 0 10 -7 10 -15 0 -8 5 -15 10 -15
15 0 12 16 -6 34 -18 19 -24 20 -24 6z"/>
<path d="M3637 4959 c7 -7 15 -10 18 -7 3 3 -2 9 -12 12 -14 6 -15 5 -6 -5z"/>
<path d="M1760 4698 c1 -25 18 -52 38 -55 6 -2 12 2 12 7 0 6 -7 10 -15 10 -9
0 -15 9 -15 24 0 14 -4 28 -10 31 -6 3 -10 -4 -10 -17z"/>
<path d="M1821 4504 c0 -11 3 -14 6 -6 3 7 2 16 -1 19 -3 4 -6 -2 -5 -13z"/>
<path d="M1791 4494 c0 -11 3 -14 6 -6 3 7 2 16 -1 19 -3 4 -6 -2 -5 -13z"/>
<path d="M1610 4311 c0 -5 7 -14 15 -21 8 -7 15 -17 15 -22 0 -5 8 -20 18 -33
l19 -24 1 34 c1 25 -3 34 -18 38 -11 3 -20 12 -20 21 0 9 -7 16 -15 16 -8 0
-15 -4 -15 -9z"/>
<path d="M1665 4310 c3 -5 8 -10 11 -10 2 0 4 5 4 10 0 6 -5 10 -11 10 -5 0
-7 -4 -4 -10z"/>
<path d="M1704 4179 c0 -9 13 -21 28 -27 27 -10 28 -9 28 19 0 26 -3 29 -28
27 -18 -1 -28 -8 -28 -19z m31 1 c3 -5 1 -10 -4 -10 -6 0 -11 5 -11 10 0 6 2
10 4 10 3 0 8 -4 11 -10z"/>
<path d="M1770 4070 c0 -5 5 -10 10 -10 6 0 10 5 10 10 0 6 -4 10 -10 10 -5 0
-10 -4 -10 -10z"/>
<path d="M1810 4065 c0 -8 5 -15 10 -15 6 0 10 7 10 15 0 8 -4 15 -10 15 -5 0
-10 -7 -10 -15z"/>
<path d="M3240 4831 c-17 -33 -12 -42 18 -35 35 9 35 9 22 33 -13 26 -26 27
-40 2z m19 -22 c-19 -12 -24 -2 -8 17 9 11 14 13 17 4 3 -7 -2 -16 -9 -21z"/>
<path d="M2166 4298 c-3 -13 -6 -36 -6 -52 0 -22 3 -27 11 -19 6 6 17 10 23 9
6 -2 8 -1 4 1 -5 3 -6 17 -3 31 5 25 5 25 -4 5 -15 -34 -24 -28 -17 12 8 39 2
48 -8 13z"/>
<path d="M2195 4200 c3 -5 8 -10 11 -10 2 0 4 5 4 10 0 6 -5 10 -11 10 -5 0
-7 -4 -4 -10z"/>
<path d="M2195 4170 c-3 -5 1 -10 10 -10 9 0 13 5 10 10 -3 6 -8 10 -10 10 -2
0 -7 -4 -10 -10z"/>
<path d="M2249 3999 c3 -86 4 -85 -58 -80 -21 2 -22 1 -8 -13 14 -14 18 -14
44 -1 l28 15 6 -43 c3 -23 4 7 2 67 -2 61 -7 115 -11 122 -4 7 -5 -23 -3 -67z"/>
<path d="M2292 3860 c0 -14 2 -19 5 -12 2 6 2 18 0 25 -3 6 -5 1 -5 -13z"/>
<path d="M2341 3454 c0 -11 3 -14 6 -6 3 7 2 16 -1 19 -3 4 -6 -2 -5 -13z"/>
<path d="M5835 3620 c-3 -5 1 -10 9 -10 8 0 18 5 21 10 3 6 -1 10 -9 10 -8 0
-18 -4 -21 -10z"/>
<path d="M1690 3322 c0 -5 44 -33 98 -63 53 -29 122 -68 152 -86 58 -35 70
-39 70 -24 0 10 -292 181 -309 181 -6 0 -11 -4 -11 -8z"/>
<path d="M2207 3049 c12 -12 28 -22 94 -58 43 -23 208 -126 261 -162 15 -10
29 -15 31 -11 6 9 -187 139 -294 198 -78 43 -116 57 -92 33z"/>
<path d="M5917 2717 c3 -5 -1 -13 -8 -18 -12 -8 -12 -11 1 -20 11 -8 12 -12 3
-16 -7 -2 -13 -13 -13 -24 0 -16 5 -18 28 -13 36 9 41 14 13 14 -12 0 -19 4
-16 10 4 6 10 8 15 5 13 -8 50 26 50 46 0 12 -11 18 -39 21 -22 2 -37 -1 -34
-5z m43 -22 c-7 -9 -15 -13 -17 -11 -7 7 7 26 19 26 6 0 6 -6 -2 -15z"/>
<path d="M6080 6340 l0 -60 40 0 c33 0 40 3 40 20 0 17 7 20 40 20 l40 0 0 40
c0 22 -4 40 -10 40 -5 0 -10 -7 -10 -15 0 -8 -5 -15 -10 -15 -6 0 -13 7 -16
15 -5 11 -21 15 -60 15 l-54 0 0 -60z"/>
<path d="M6080 6160 l0 -40 40 0 40 0 0 40 0 40 -40 0 -40 0 0 -40z"/>
<path d="M0 3142 c0 -20 145 -65 234 -73 50 -5 109 -11 131 -14 30 -4 36 -2
23 5 -9 6 -74 17 -144 25 -90 11 -144 23 -182 40 -61 28 -62 28 -62 17z"/>
<path d="M5725 1051 c-64 -19 -120 -45 -130 -61 -9 -15 -2 -13 52 14 47 24
137 50 198 59 21 3 17 4 -15 5 -25 0 -72 -7 -105 -17z"/>
<path d="M5503 961 c-56 -22 -125 -71 -152 -110 -30 -42 -23 -39 31 13 25 24
72 56 104 71 67 32 69 34 63 39 -2 2 -23 -4 -46 -13z"/>
</g>
</svg>
